<svg xmlns="http://www.w3.org/2000/svg" width="96" height="109.5" viewBox="0 0 96 109.5"><g transform="translate(-458 -2051)"><path d="M-23.931,343.348A48.014,48.014,0,0,1-64,296a48,48,0,0,1,48-48,48,48,0,0,1,48,48A48.016,48.016,0,0,1-7.232,343.2l-8.393,14.3Z" transform="translate(522 1803)" fill="#d4453d"/><path d="M-27.99-17.4c-.21,0-.69,0-.87-.39a24.749,24.749,0,0,1-.09-2.7,1.366,1.366,0,0,1,.54-1.32c.45-.42.57-.51.57-.81,0-.42-.45-.57-.69-.63a14.606,14.606,0,0,0-2.82-.48c-.24,0-.42.06-.42.3,0,.18.27,1.14.3,1.35a31.169,31.169,0,0,1,.06,3.6c0,.87-.18,1.08-.9,1.08h-5.91c-1.41,0-2.64-.03-4.11-.12-.18,0-1.11-.09-1.32-.09-.06,0-.12.03-.12.06,0,.06.03.09.15.21l.57.69c.09.12.15.18.27.18.09,0,.54-.06.63-.06.3-.03,1.14-.09,3.78-.09h20.28c1.5,0,1.68,0,1.68-.42,0-.57-3-2.58-3.33-2.58-.36,0-.48.15-1.38,1.53-.45.69-.63.69-2.1.69Zm-6,6.78a5.235,5.235,0,0,0-1.41-.72c-.33,0-.33.06-.51.81-.57,2.52-3.42,7.05-6.57,10.2-.21.21-1.44,1.29-1.44,1.32,0,.06.06.06.12.06.78,0,4.83-2.43,8.1-6.57a33.028,33.028,0,0,1,2.49-3.15c.51-.3.6-.33.6-.6C-32.61-9.72-33.39-10.23-33.99-10.62Zm9.06,1.11a10.041,10.041,0,0,0-2.25-1.29.129.129,0,0,0-.12.12c0,.06.84,1.05.99,1.26,1.89,2.31,4.47,5.85,5.28,9.12.15.66.36,1.26,1.11,1.26.84,0,1.47-1.05,1.47-2.16C-18.45-4.05-21.54-7.05-24.93-9.51ZM4.95-4.74c1.11,0,1.62,0,1.62-.48A5.04,5.04,0,0,0,4.53-7.14c-.27,0-.57.51-.69.75-.33.81-.51.87-1.44.87H1.86c-.84,0-.84-.54-.84-.87,0-2.64-.03-6.84-.03-9.45,0-.33,0-.75.36-.75.27,0,.33.15.48.54A26.791,26.791,0,0,0,6.36-8.28,20.121,20.121,0,0,0,10.8-4.35c.09,0,.15-.06.39-.3a2.507,2.507,0,0,1,1.26-.69,21.073,21.073,0,0,0,2.07-.45c0-.09-.09-.09-.75-.36C7.38-8.73,2.49-15.24,2.49-16.32c0-.27.21-.27.6-.27H11.7c1.05,0,1.62,0,1.62-.45,0-.42-2.7-2.4-3.06-2.4-.24,0-.42.09-.96,1.35-.33.72-.54.72-1.92.72H1.77c-.78,0-.78-.57-.78-1.62a17.716,17.716,0,0,1,.33-4.08c.06-.15.69-.69.69-.87,0-.54-2.91-.93-3-.93s-.27,0-.27.27c0,.15.24,1.83.27,2.04.06.66.06,1.65.06,4.23,0,.51,0,.96-.99.96H-7.89c-1.23,0-2.34-.03-4.05-.12-.21,0-1.17-.09-1.38-.09-.03,0-.12,0-.12.06,0,.03.06.09.12.18l.6.72c.18.18.21.18.3.18.18,0,1.05-.09,1.23-.09,1.11-.06,2.31-.06,3.15-.06h4.05c.33,0,.75,0,.75.45,0,.99-3.69,7.41-7.8,11.13-.3.27-1.86,1.59-1.86,1.68s.12.12.18.12a10.382,10.382,0,0,0,2.19-1.2A26.7,26.7,0,0,0-2.1-13.86c.63-1.08.66-1.17.9-1.17.27,0,.27.27.27.57,0,1.14-.06,6.75-.06,8.01,0,.54-.06.93-.93.93h-.9c-.54,0-3.21-.21-3.81-.21-.03,0-.12,0-.12.06a.255.255,0,0,0,.09.15l.66.75c.15.18.15.18.27.18s.72-.06.87-.06c.36-.03,1.2-.09,1.95-.09h1.05c.39,0,.87,0,.87.96,0,.21-.06,2.01-.09,3.06,0,.12-.12,1.53-.12,1.8,0,.3,0,1.02.75,1.02.93,0,1.53-.78,1.53-1.86,0-.51-.06-3.15-.06-3.72,0-.9.15-1.26.96-1.26ZM31.89-17.55c-.63,0-.99-.12-.99-.93,0-1.26.09-4.56.42-4.92a2.483,2.483,0,0,1,.45-.33.315.315,0,0,0,.15-.27c0-.6-2.64-.9-2.88-.9-.18,0-.24.06-.24.24,0,.09.12.81.12.96.06.57.03,1.98.03,2.19,0,.45,0,3.33-.03,3.51-.15.45-.66.45-.99.45H22.86c-1.26,0-3.3-.03-4.59-.12-.18,0-.99-.09-1.17-.09-.03,0-.09,0-.09.06s.03.12.12.21l.63.69c.15.18.18.21.27.21.12,0,.57-.06.66-.06,1.08-.09,3.21-.09,4.02-.09h3.81c.69,0,1.02,0,1.02.42,0,.57-1.83,5.28-7.77,10.59-.48.42-3.09,2.52-3.09,2.7,0,.06.06.09.12.09.9,0,6.72-3.66,10.38-8.49a22.675,22.675,0,0,1,1.68-2.28c.15,0,.15.18.15.39,0,2.7-.06,7.44-.12,8.76-.03.9-.24,5.25-.24,5.58,0,.45.15,1.08.72,1.08,1.17,0,1.65-1.35,1.65-2.64,0-.93-.09-4.98-.09-5.82,0-1.44-.03-8.7-.03-9.12,0-.57,0-.66.09-.66a21.738,21.738,0,0,1,1.02,2.16,26.867,26.867,0,0,0,7.41,9.42c.21.18.9.75,1.14.75.21,0,.84-.69.99-.78a4.785,4.785,0,0,1,2.1-.63c.12,0,.39,0,.39-.12,0-.18-.12-.21-1.11-.63C41.4-6.6,35.46-9.63,32.4-14.94a4.763,4.763,0,0,1-.63-1.41c0-.39.36-.39.6-.39h9.3c.99,0,1.68,0,1.68-.42,0-.12-.33-.42-.75-.81-1.29-1.11-1.47-1.26-1.83-1.26-.39,0-.48.09-1.14,1.17-.33.51-.66.51-2.04.51Z" transform="translate(507 2109.827)" fill="#fff"/><path d="M-6.432-9.1h-5.076v-1.032h-.96V-9.1h-5.076v.9h5.076v.816H-16.68v4.464h3.48a11.745,11.745,0,0,1-4.488,2.76l.576.936a11.968,11.968,0,0,0,4.644-3.288V1.008h.96V-2.508A13.006,13.006,0,0,0-6.864.768L-6.3-.18a11.227,11.227,0,0,1-4.476-2.736h3.5V-7.38h-4.236V-8.2h5.076Zm-6.036,2.544v1.008h-3.288V-6.552Zm0,1.788v1.032h-3.288V-4.764Zm4.284-.78h-3.324V-6.552h3.324Zm0,1.812h-3.324V-4.764h3.324ZM4.308-7.14h-8.64v3.9h3.84v2.9c0,.324-.06.36-.408.36L-2.568.012l.24,1.032H-.54C.288,1.044.468.624.468.024V-3.24h3.84ZM3.336-4.128h-6.7V-6.252h6.7Zm2.22-4.956H.468v-1.068H-.564v1.068H-5.556v.948H5.556ZM-4.944.684A10.233,10.233,0,0,0-2.16-2.256l-.888-.492A8.118,8.118,0,0,1-5.664-.108ZM1.92-2.292A9.3,9.3,0,0,0,4.932.612l.66-.84A8.821,8.821,0,0,1,2.808-2.784ZM12.228-9.624a12.69,12.69,0,0,1-.78,1.452v-.8H9.732v-1.152H8.8v1.152H6.756v.864H8.8V-6.5H6.384v.864H9.36A12.672,12.672,0,0,1,6.228-3.684l.408.816c.444-.216.564-.288.816-.42V.792h4.716V-4.536H9.4a9.7,9.7,0,0,0,1.248-1.1h2.148V-6.5h-1.4A20.452,20.452,0,0,0,13.14-9.228Zm-.96,7.308H8.376V-3.708h2.892Zm0,2.268H8.376V-1.524h2.892ZM9.732-6.5V-8.112h1.692A12.189,12.189,0,0,1,10.236-6.5Zm7.68-3.312H13.344V1.008h.96V-8.94h2.028A18.779,18.779,0,0,1,14.8-5.472c1.128,1.08,1.752,1.968,1.752,3.156,0,1.008-.528,1.1-.984,1.092l-.84-.012.12.984H15.7c.516,0,1.884,0,1.884-2.124A4.288,4.288,0,0,0,15.9-5.628,18.545,18.545,0,0,0,17.412-8.94Z" transform="translate(506 2130.399)" fill="#fff"/><path d="M-.444-.168a10.887,10.887,0,0,1-4.62-1.344A11.415,11.415,0,0,0-2.1-5.172V-6.12H-5.52v-1.7h5.1v-.948h-5.1v-1.38h-.972v1.38H-11.58v.948h5.088v1.7h-4.2v.948H-3.3A9.9,9.9,0,0,1-5.988-2.088,8.493,8.493,0,0,1-8.472-4.824l-.84.48A8.933,8.933,0,0,0-6.9-1.5,13.5,13.5,0,0,1-11.544-.144l.456,1.068a15.15,15.15,0,0,0,5.1-1.788A13.389,13.389,0,0,0-.84.888ZM3.3-4.128a8.1,8.1,0,0,0,1.428,1.44l.54-.876A8.658,8.658,0,0,1,3.54-5.136,8.4,8.4,0,0,0,4.848-7.26v-.912H3.3v-1.956H2.328v1.956H.432v.9h3.36A8.684,8.684,0,0,1,.276-3.552l.408.984A11.172,11.172,0,0,0,2.328-3.84V1.02H3.3Zm4.308-6V-6.66H5.1v.984H7.608V-.4H4.536V.588h7V-.4H8.616v-5.28h2.64V-6.66H8.616v-3.468Z" transform="translate(506 2075.399)" fill="#fff"/></g></svg>