<svg xmlns="http://www.w3.org/2000/svg" width="96" height="109.5" viewBox="0 0 96 109.5"><g transform="translate(-458 -2051)"><path d="M-23.931,343.348A48.014,48.014,0,0,1-64,296a48,48,0,0,1,48-48,48,48,0,0,1,48,48A48.016,48.016,0,0,1-7.232,343.2l-8.393,14.3Z" transform="translate(522 1803)" fill="#d4453d"/><path d="M-19.04-15.68c.512,0,.864,0,.864.7a23.405,23.405,0,0,1-.512,3.232A21.012,21.012,0,0,1-29.824,1.888c-.32.16-1.024.48-1.024.64,0,.1.128.128.192.128A13.835,13.835,0,0,0-25.888.928c8.256-4.608,9.44-11.264,10.08-14.848.128-.672.128-.768.224-.768.064,0,.192.448.224.64A32.164,32.164,0,0,0-10.368-3.2c1.7,2.432,4.544,4.992,5.12,4.992a4.86,4.86,0,0,0,1.056-.576A8.025,8.025,0,0,1-1.312.608c.48-.032.64-.064.64-.288,0-.128,0-.128-.864-.48-9.056-3.552-13.216-13.056-13.216-15.008,0-.512.224-.512.928-.512H-3.616c1.056,0,1.7,0,1.7-.448A8.148,8.148,0,0,0-5.184-18.5c-.384,0-.512.128-1.536,1.44-.416.544-.576.544-2.048.544H-14.3c-.512,0-1.088,0-1.088-.736,0-.768.224-4.48.256-5.312.064-1.5.064-1.664.672-2.176.352-.288.512-.48.512-.736,0-.32-.288-.48-.7-.576a26.6,26.6,0,0,0-3.328-.736c-.192,0-.192.1-.192.256s.1.9.128,1.088c.192,1.952.192,3.648.192,4.416,0,4.512-.1,4.512-1.088,4.512H-24.48c-1.5,0-2.816-.064-4.384-.128-.192,0-1.184-.1-1.408-.1-.064,0-.128,0-.128.064s.032.064.16.224l.608.736c.1.128.16.192.288.192.1,0,.544-.064.672-.064.32-.032,1.216-.1,4.032-.1ZM6.432-25.312a2.342,2.342,0,0,1-1.408-.352,6.192,6.192,0,0,0-1.76-.736.149.149,0,0,0-.16.16c0,.192.128,1.088.128,1.28a55.489,55.489,0,0,1,.128,5.728c0,5.216,0,15.52-.352,19.3-.032.256-.1.992-.1,1.216a1.064,1.064,0,0,0,1.12,1.184C5.6,2.464,5.6.992,5.6-.576c0-.544-.1-2.944-.1-3.456,0-1.728,0-1.824.352-1.824A2.47,2.47,0,0,1,7.424-4.48c.256.736.256.736.512.736,1.984,0,4-2.624,4-6.048A7.413,7.413,0,0,0,8.96-15.84a7.253,7.253,0,0,1-.864-.8c0-.032,3.36-6.016,4.544-6.944.64-.512.672-.544.672-.736,0-.512-2.112-1.856-2.432-1.856-.224,0-.288.064-.736.544a.93.93,0,0,1-.832.32Zm2.432.832c.736,0,.96,0,.96.416,0,.8-2.656,7.488-2.656,7.616,0,.16.672.608.8.768a7.961,7.961,0,0,1,1.664,4.8,7.981,7.981,0,0,1-.9,3.84c-.352.512-.832.576-1.6.576-1.28,0-1.536-.1-1.6-.416C5.5-7.04,5.5-13.472,5.5-15.488c0-1.152.064-6.816.064-8.128A.8.8,0,0,1,6.5-24.48Zm9.024,6.912c-.864,0-.864-.448-.864-1.536,0-.544-.032-2.912,0-3.392.032-.64.48-.736.9-.736H28.992c1.088,0,1.728,0,1.728-.448,0-.384-2.624-2.112-3.1-2.112-.448,0-.64.288-1.152,1.088-.416.608-.576.608-2.08.608H18.528a3.44,3.44,0,0,1-1.728-.416,10.908,10.908,0,0,0-2.3-.832c-.16,0-.192.128-.192.256,0,.32.256,1.728.288,2.048.064,1.184.192,3.52.192,5.76,0,3.808,0,12.32-5.024,17.984C9.6.9,8.64,1.76,8.448,1.92c0,.1.192.1.224.1.992,0,6.08-3.3,7.616-10.944a36.684,36.684,0,0,0,.736-7.008c.032-.48.032-.768.64-.768.832,0,.832.128.992,1.216.64,4.768,1.28,6.624,2.208,8.64.48,1.024.512,1.152.512,1.248,0,.672-4.352,5.312-7.712,6.944-.352.16-.64.288-.64.416s.16.192.288.192c.672,0,4.64-1.44,8.224-4.928.64-.608.7-.672.928-.672.16,0,.224.128.512.544,2.08,3.136,3.872,4.672,4.256,4.672A8.276,8.276,0,0,0,28.224.96,4.089,4.089,0,0,1,30.3.384c.448,0,.9,0,.9-.128,0-.224-.32-.352-.544-.448-3.712-1.472-6.624-4.7-6.624-5.248a5.014,5.014,0,0,1,.576-.992c2.016-3.008,2.144-3.392,3.968-8.992a1.813,1.813,0,0,1,.672-1.024c.512-.288.64-.352.64-.576,0-.448-2.112-1.92-2.624-1.92-.352,0-.512.256-.96.864a1.205,1.205,0,0,1-1.152.512Zm7.2.864c.416,0,.9,0,.9.576,0,1.888-2.464,8.672-3.392,8.672s-3.3-7.328-3.3-8.8c0-.448.288-.448.768-.448Z" transform="translate(506 2109.827)" fill="#fff"/><path d="M-12.612-7.176h-4.932v1h4.872A7.417,7.417,0,0,1-17.652-.1l.576,1.032A8.886,8.886,0,0,0-11.952-4.8,8.459,8.459,0,0,0-6.936.96l.672-1.008A7.765,7.765,0,0,1-11.376-6.18h4.944v-1h-5.112v-2.94h-1.068ZM5.76.084a6.811,6.811,0,0,1-2.34-1.7A8.824,8.824,0,0,0,5.112-6.06v-.684H.192V-8.856h5.34v-.912h-6.3v4.212c0,3.936-1.176,5.244-1.74,5.868l.8.7C-.072-.912.192-3.144.192-5.844H4.068A6.4,6.4,0,0,1,2.82-2.412,7.8,7.8,0,0,1,1.632-5.448l-.924.2a9.37,9.37,0,0,0,1.44,3.588A8.981,8.981,0,0,1-.552.108l.5.9a11.676,11.676,0,0,0,2.8-1.9,7.861,7.861,0,0,0,2.412,1.9ZM-5.256-9.768V1.008h1V-8.916H-2.6A23.158,23.158,0,0,1-3.816-5.868,3.359,3.359,0,0,1-2.484-3.3c0,.948-.336,1.056-.744,1.044l-.732-.012.144.984h.744a1.531,1.531,0,0,0,1.524-1.8,4.128,4.128,0,0,0-1.26-2.964A20.756,20.756,0,0,0-1.584-8.94v-.828ZM10.68-5.58a16.679,16.679,0,0,0,.948-2.04l-.912-.3a9.874,9.874,0,0,1-2.652,4.2l.564.864A7.2,7.2,0,0,0,9.72-4.08V1.008h.96Zm.888-4.536v.984H7.044v4.98A10.148,10.148,0,0,1,6.288.24l.816.768c.276-.588.888-1.9.888-5.256V-8.2h9.48v-.936h-4.9v-.984Zm4.752,2.34h-.984v1.7H11.5v.948h3.84V-.348c0,.384-.144.384-.336.384L13.344.024l.228.984h1.716A.943.943,0,0,0,16.32-.048V-5.124h1.236v-.948H16.32ZM14.172-1.752A15.5,15.5,0,0,0,12.564-4.38l-.852.468a13.423,13.423,0,0,1,1.56,2.664Z" transform="translate(506 2130.399)" fill="#fff"/><path d="M-.444-.168a10.887,10.887,0,0,1-4.62-1.344A11.415,11.415,0,0,0-2.1-5.172V-6.12H-5.52v-1.7h5.1v-.948h-5.1v-1.38h-.972v1.38H-11.58v.948h5.088v1.7h-4.2v.948H-3.3A9.9,9.9,0,0,1-5.988-2.088,8.493,8.493,0,0,1-8.472-4.824l-.84.48A8.933,8.933,0,0,0-6.9-1.5,13.5,13.5,0,0,1-11.544-.144l.456,1.068a15.15,15.15,0,0,0,5.1-1.788A13.389,13.389,0,0,0-.84.888ZM3.3-4.128a8.1,8.1,0,0,0,1.428,1.44l.54-.876A8.658,8.658,0,0,1,3.54-5.136,8.4,8.4,0,0,0,4.848-7.26v-.912H3.3v-1.956H2.328v1.956H.432v.9h3.36A8.684,8.684,0,0,1,.276-3.552l.408.984A11.172,11.172,0,0,0,2.328-3.84V1.02H3.3Zm4.308-6V-6.66H5.1v.984H7.608V-.4H4.536V.588h7V-.4H8.616v-5.28h2.64V-6.66H8.616v-3.468Z" transform="translate(506 2075.399)" fill="#fff"/></g></svg>