<svg xmlns="http://www.w3.org/2000/svg" width="96" height="109.5" viewBox="0 0 96 109.5"><g transform="translate(-458 -2051)"><path d="M-23.931,343.348A48.014,48.014,0,0,1-64,296a48,48,0,0,1,48-48,48,48,0,0,1,48,48A48.016,48.016,0,0,1-7.232,343.2l-8.393,14.3Z" transform="translate(522 1803)" fill="#d4453d"/><path d="M-29.344-17.248c.1.128.16.224.288.224a5.653,5.653,0,0,0,.672-.1c.992-.064,2.784-.064,3.872-.064a.781.781,0,0,1,.736.8c0,.736-1.664,6.08-5.7,12.416-.288.416-1.6,2.4-1.728,2.624l.1.064c.736-.128,5.44-5.344,6.848-8.224.288-.608.384-.672.544-.672a.244.244,0,0,1,.256.224v3.008c0,1.792-.032,3.072-.1,4.544-.064,1.152-.224,3.488-.224,3.9,0,.736.16.928.96.928,1.728,0,1.728-1.344,1.728-2.144,0-1.088-.1-2.72-.1-3.136,0-1.376-.1-8-.1-9.5a.431.431,0,0,1,.416-.448c.416,0,1.664,1.44,2.336,3.008.672,1.536.768,1.7,1.248,1.7A1.368,1.368,0,0,0-15.936-9.44c0-1.056-.768-2.656-4.224-3.84-1.152-.416-1.152-.832-1.152-3.008,0-.9.608-.9,1.088-.9h2.688c1.024,0,1.7,0,1.7-.448a6.844,6.844,0,0,0-2.5-2.144c-.256,0-.32.128-.9,1.184-.288.48-.544.544-1.184.544-.928,0-.928-.64-.928-1.024a39.713,39.713,0,0,1,.288-5.312c.032-.128.64-.768.64-.928,0-.7-3.3-1.472-3.328-1.472-.16,0-.192.1-.192.256,0,.288.256,1.6.256,1.888.032.64.16,4.96.16,5.7,0,.448-.16.9-.96.9-1.312,0-2.784-.064-4.1-.1-.192-.032-1.184-.128-1.408-.128-.1,0-.128.032-.128.1,0,.032,0,.032.128.192Zm15.712-9.376c-.1.128.128.992.16,1.184.352,2.624.352,7.712.352,18.4,0,8.16,0,8.7,5.472,8.7A13.582,13.582,0,0,0-3.008.992a2.951,2.951,0,0,0,1.856-2.24c0-.224-.1-.352-.384-.7-.384-.512-.64-.96-.9-2.88-.064-.448-.384-2.816-.64-2.816-.16,0-.16.192-.16.608A34.473,34.473,0,0,1-4.1-1.632c-.32.8-.736,1.152-3.616,1.152-1.312,0-2.56-.224-2.88-.7-.16-.224-.16-.608-.256-3.1-.1-3.136-.1-4.288-.1-19.68,0-.608.064-.7.48-.96.224-.16.384-.32.384-.544,0-.352-.256-.416-1.024-.64-.288-.1-2.176-.544-2.3-.544A.474.474,0,0,0-13.632-26.624Zm27.744,17.7c-.448,0-.768-.064-.864-.512-.064-.32-.064-7.04-.064-8.128,0-.9,0-.992.256-1.184.352-.256.64-.416.64-.736,0-.512-1.952-1.92-2.144-1.92-.16,0-.768.768-.928.864a1.22,1.22,0,0,1-.864.256c-.7,0-.992,0-.992-.7a18.629,18.629,0,0,1,.192-3.3c.064-.128.768-.576.768-.736,0-.416-2.656-1.5-3.3-1.5-.128,0-.224.032-.224.16s.256.736.288.864a39.143,39.143,0,0,1,.256,4.288c0,.544,0,.928-.7.928a2.476,2.476,0,0,1-1.5-.32A3.924,3.924,0,0,0,3.1-21.44c-.1,0-.224.064-.224.16,0,.352.288,1.92.32,2.272.064,1.216.064,5.7.064,6.56,0,2.5,0,4.288-.064,5.664,0,.416-.16,2.432-.16,2.88,0,.32.1.992.832.992a1.672,1.672,0,0,0,1.216-.544c.192-.256.192-.992.192-2.592V-18.4c0-1.024.064-1.024,1.152-1.024.736,0,.736.128.736,1.408,0,4.608.032,13.536-.224,17.664,0,.256-.192,1.6-.192,1.824a.852.852,0,0,0,.96.9C9.28,2.368,9.28,1.184,9.28.544c0-.384-.192-4.928-.192-5.856,0-.608,0-.864.288-.864.352,0,.928.576,1.184,1.312.32.832.352.96.64.96a2.6,2.6,0,0,0,2.08-2.688c.032-1.248.032-1.472.9-1.472H16.9c.416,0,.832,0,.832.7a12.177,12.177,0,0,1-5.6,9.376c-.192.128-1.248.672-1.248.7a.113.113,0,0,0,.128.128,11.153,11.153,0,0,0,8-6.624A11.425,11.425,0,0,1,20-6.144c.1-.16.928-.672.928-.864,0-.288-.544-.48-.672-.544-.7-.256-.768-.256-.768-.416,0-.1.16-.1.288-.1h1.536c.8,0,.8.256.8,1.472,0,.7-.064,4.128-.064,4.9,0,2.624.16,3.648,4.864,3.648,1.7,0,3.264-.1,3.264-1.312a.83.83,0,0,0-.384-.672,1.466,1.466,0,0,1-.608-.832c-.128-.48-.352-3.264-.512-3.264-.064,0-.544,1.952-.608,2.144-.32,1.216-.448,1.728-1.856,1.728-1.824,0-2.08-.416-2.144-1.28-.032-.192,0-4.96,0-5.536,0-.48,0-.992.832-.992h3.552c.192,0,1.12-.032,1.312-.032.352,0,1.056,0,1.056-.544,0-.576-2.5-2.336-2.656-2.336-.192,0-1.152,1.856-1.5,1.984-.16.064-.224.064-1.024.064H24.384c-.128,0-.352,0-.352-.192a21.974,21.974,0,0,1,3.2-3.008c.48-.1,1.248-.256,1.248-.8,0-.672-2.528-2.048-2.816-2.048-.16,0-.16.064-.16.448,0,.576-1.664,5.6-2.816,5.6a.561.561,0,0,1-.608-.48c-.032-.128-.032-2.528-.032-2.88,0-1.856,0-2.048.544-2.528a.867.867,0,0,0,.288-.512c0-.192-.224-.32-.352-.352-.544-.224-.576-.256-.576-.384s.128-.128.256-.128H24a1,1,0,0,1,.832.288c.352.48.48.672.864.672a1.475,1.475,0,0,0,1.408-1.5c0-.832-.1-4.864-.1-5.792a1.222,1.222,0,0,1,.384-1.024c.288-.224.448-.384.448-.608,0-.32-.192-.48-.7-.832-.224-.16-1.184-1.152-1.472-1.152-.128,0-.448.352-.64.544a1.657,1.657,0,0,1-1.5.64H18.688a3.2,3.2,0,0,1-1.792-.384,9.87,9.87,0,0,0-1.76-.736c-.032,0-.224.032-.224.16,0,.064.224.9.256,1.088.224,1.408.224,5.344.224,8.032,0,1.5,0,1.824.864,1.824a1.354,1.354,0,0,0,1.216-.544c.288-.512.352-.672.992-.672h.672c.864,0,.992.16.992,2.976,0,1.312,0,3.744-.032,3.872-.128.416-.608.416-.832.416ZM18.5-17.056c-.8,0-1.024-.192-1.024-2.272,0-.448,0-1.024.96-1.024h5.44c.992,0,.992.448.992,1.6,0,1.312,0,1.7-.992,1.7Zm-.16-4.128c-.736,0-.9-.256-.9-1.408,0-1.024,0-1.5.96-1.5h5.5c.96,0,.96.48.96,1.376,0,1.088,0,1.536-.96,1.536Zm-7.744,1.76c.64,0,.64.32.64.864,0,3.616,0,7.776.032,11.36,0,.576,0,.768-.672.768-1.024,0-1.312-.032-1.44-.384-.1-.192-.128-4.384-.128-4.992,0-.7.064-7.136.192-7.392.128-.224.384-.224.672-.224ZM14.3-14.336c0,.16,1.28,2.5,1.44,2.944.736,1.984.8,2.176,1.408,2.176.928,0,1.216-.864,1.216-1.664a2.17,2.17,0,0,0-.832-1.76,7.38,7.38,0,0,0-3.1-1.792C14.4-14.432,14.3-14.4,14.3-14.336Z" transform="translate(506 2109.827)" fill="#fff"/><path d="M-17.3.3c1.3-.348,2.976-.936,3.228-1.032v1.74h1.02V-10.128h-1.02V-7.14h-3.468v.972h3.468v4.416c-.576.2-2.268.744-3.528,1.032Zm5.928-10.428V-.048c0,.864.756.864,1.02.864H-7.7c1.164,0,1.212-.852,1.32-2.9l-1.008-.36c0,2.268-.24,2.268-.684,2.268H-9.924c-.348,0-.432-.084-.432-.36V-5.148a22.469,22.469,0,0,0,3.84-2.46L-7.2-8.472a16.926,16.926,0,0,1-3.156,2.208v-3.864ZM4.812-4.392c0-.384.036-2.268.036-2.7H-1.536c-.048,1.152-.12,2.148-.18,2.7H-2.64v.816h.828A25.913,25.913,0,0,1-2.364-.708H3.624c-.072.516-.168.852-.708.852L1.368.132l.18.876H3.06c1.284,0,1.392-.828,1.524-1.716h.732v-.84H4.68c.024-.252.084-1.416.108-2.028h.78v-.816ZM1.68-1.548c.1-.744.144-1.116.24-2.028H3.84c-.024.648-.048,1.392-.12,2.028Zm.3-2.844c.048-.636.072-.96.108-1.872H3.9c0,.468,0,.708-.036,1.872Zm-2.748,0c.1-.828.144-1.512.168-1.872H1.212c-.024.588-.06,1.152-.12,1.872Zm-.408,2.844c.12-.6.144-.8.312-2.028H1.02c-.1.912-.168,1.368-.288,2.028Zm-1.164-4.8A12.458,12.458,0,0,0-.72-8.2H5.544v-.888H-.192a7.812,7.812,0,0,0,.36-.9L-.84-10.176A6.943,6.943,0,0,1-3.12-7.044Zm-.24-2.544a7.561,7.561,0,0,0-1.992-1.176l-.528.792A9.279,9.279,0,0,1-3.168-8.04Zm-.6,3.276A8.4,8.4,0,0,0-5.16-6.8l-.516.816A8.713,8.713,0,0,1-3.768-4.74ZM-5,.948A15.259,15.259,0,0,0-2.8-3.132l-.792-.588A13.765,13.765,0,0,1-5.712.048ZM17.532-8.8H15.348a8.207,8.207,0,0,0,.66-1.176l-1-.24A8.519,8.519,0,0,1,14.376-8.8h-2a7.907,7.907,0,0,0-.816-1.4l-.828.336A8.644,8.644,0,0,1,11.364-8.8H9.348v.864H12.7a5.156,5.156,0,0,1-.276.828H10.14v6.036h6.648V-7.1H13.356c.132-.24.3-.648.372-.828h3.8Zm-1.7,5.16H11.112V-4.62h4.716Zm0-1.7H11.112V-6.3h4.716Zm0,3.468H11.112V-2.916h4.716ZM9.12-8a9.306,9.306,0,0,0-1.836-1.98L6.6-9.36a11.763,11.763,0,0,1,1.728,2ZM6.456-5.472v.948H7.728v3.36A6.467,6.467,0,0,1,6.348-.036l.468,1.092a10.605,10.605,0,0,0,1.7-1.74A3.583,3.583,0,0,0,11.712.7H17.5l.18-.924H11.712a5.173,5.173,0,0,1-1.92-.4A1.644,1.644,0,0,1,8.7-1.884V-5.472Z" transform="translate(506 2130.399)" fill="#fff"/><path d="M-.444-.168a10.887,10.887,0,0,1-4.62-1.344A11.415,11.415,0,0,0-2.1-5.172V-6.12H-5.52v-1.7h5.1v-.948h-5.1v-1.38h-.972v1.38H-11.58v.948h5.088v1.7h-4.2v.948H-3.3A9.9,9.9,0,0,1-5.988-2.088,8.493,8.493,0,0,1-8.472-4.824l-.84.48A8.933,8.933,0,0,0-6.9-1.5,13.5,13.5,0,0,1-11.544-.144l.456,1.068a15.15,15.15,0,0,0,5.1-1.788A13.389,13.389,0,0,0-.84.888ZM3.3-4.128a8.1,8.1,0,0,0,1.428,1.44l.54-.876A8.658,8.658,0,0,1,3.54-5.136,8.4,8.4,0,0,0,4.848-7.26v-.912H3.3v-1.956H2.328v1.956H.432v.9h3.36A8.684,8.684,0,0,1,.276-3.552l.408.984A11.172,11.172,0,0,0,2.328-3.84V1.02H3.3Zm4.308-6V-6.66H5.1v.984H7.608V-.4H4.536V.588h7V-.4H8.616v-5.28h2.64V-6.66H8.616v-3.468Z" transform="translate(506 2075.399)" fill="#fff"/></g></svg>