<svg xmlns="http://www.w3.org/2000/svg" width="96" height="109.5" viewBox="0 0 96 109.5">
  <g id="img_gmap_pin_akihabara" transform="translate(-458 -2051)">
    <path id="path" d="M-23.931,343.348A48.014,48.014,0,0,1-64,296a48,48,0,0,1,48-48,48,48,0,0,1,48,48A48.016,48.016,0,0,1-7.232,343.2l-8.393,14.3Z" transform="translate(522 1803)" fill="#d4453d"/>
    <path id="パス_20" data-name="パス 20" d="M-34.048-17.44c1.152,0,1.728,0,1.728-.48a3.826,3.826,0,0,0-1.856-2.016c-.256,0-.32.1-.992,1.056a1.34,1.34,0,0,1-1.184.576c-.928,0-.928-.544-.928-2.5,0-2.72,0-2.816.96-2.88.544-.032,3.392-.256,3.68-.352a.638.638,0,0,0,.576-.608c0-.672-1.888-2.176-2.336-2.176a10.518,10.518,0,0,0-1.824.864,56.48,56.48,0,0,1-8.32,2.336,6.041,6.041,0,0,0-1.152.384c0,.1.064.1.672.1.768,0,4.768-.224,4.864-.224a.766.766,0,0,1,.736.32c.1.224.1,2.848.1,3.168,0,1.056,0,1.568-.96,1.568-.9,0-3.264-.064-3.872-.128-.192-.032-.992-.1-1.152-.1-.032,0-.128.032-.128.1,0,.032,0,.032.16.192l.608.736c.128.16.16.224.288.224a4.855,4.855,0,0,0,.672-.1c.64-.032,2.144-.064,3.04-.064.512,0,.7.192.7.512,0,.288-.672,2.72-4.16,9.472C-44.352-7.04-45.5-4.9-45.5-4.832a.1.1,0,0,0,.1.1c.512,0,3.776-4.064,5.184-6.72.448-.8.512-.9.7-.9.224,0,.224.352.224.416,0,1.568-.032,6.432-.1,7.936,0,.448-.32,5.376-.32,5.536,0,.512.1,1.088.928,1.088,1.632,0,1.632-1.632,1.632-2.656,0-1.92-.1-10.464-.1-12.192,0-.448,0-.768.256-.768.608,0,1.792,2.5,2.08,4,.16.832.384,1.248.864,1.248.576,0,1.216-.576,1.216-1.632,0-1.632-1.216-2.592-3.616-4.416-.8-.608-.832-.992-.832-2.048,0-1.216,0-1.6,1.152-1.6ZM-23.2-13.984c-.224-.064-.288-.448-.32-.672a71.519,71.519,0,0,1-.96-9.216.625.625,0,0,1,.32-.64c.384-.224.64-.352.64-.672,0-.384-.192-.48-1.856-1.12a11.62,11.62,0,0,0-1.632-.48c-.224,0-.32.1-.32.224a11.484,11.484,0,0,0,.256,1.12,12.253,12.253,0,0,1,.128,2.08c0,15.488-4.64,21.472-6.816,24C-33.952.864-35.1,2.048-35.1,2.08c0,.064.032.128.1.128a15.386,15.386,0,0,0,4.832-4.064C-26.4-6.464-25.6-13.536-25.12-19.232c.032-.352.032-.416.128-.416.128,0,.16.1.16.832.224,11.9,3.488,17.184,4.64,19.008.832,1.376.928,1.5,1.184,1.5a4.426,4.426,0,0,0,.864-.448,5.807,5.807,0,0,1,2.08-.384c.544,0,.768,0,.768-.128a11.6,11.6,0,0,0-1.056-.9,19.7,19.7,0,0,1-5.664-8.576,23.413,23.413,0,0,1-1.024-3.84c0-.448.128-.544,1.312-1.28.672-.448,3.936-2.752,4.128-2.848a3.535,3.535,0,0,1,1.248-.288c.224,0,.48-.032.48-.384,0-.288-2.08-2.976-2.592-2.976-.256,0-.288.064-.544.8C-19.776-17.472-22.464-13.984-23.2-13.984Zm-6.144-2.848A7.3,7.3,0,0,0-30.3-19.9c-.128,0-.128.16-.128.192,0,.192.032.7.032.96a12.659,12.659,0,0,1-1.056,4.928c-.864,1.7-.96,1.888-.96,2.4a1.258,1.258,0,0,0,1.248,1.184c1.312,0,2.048-1.984,2.048-3.648A20.381,20.381,0,0,0-29.344-16.832Zm15.584.864c.128.128.192.224.288.224a4.854,4.854,0,0,0,.672-.1c1.152-.064,3.52-.064,3.872-.064.544,0,1.056,0,1.056.96,0,.768-.16,4.544-.16,5.376,0,.288,0,.928.96.928a1.505,1.505,0,0,0,1.12-.672c.288-.48.416-.576,1.056-.576H9.984c1.088,0,1.7,0,1.7-.48,0-.576-1.984-2.08-2.5-2.08-.288,0-1.12,1.184-1.344,1.408-.384.288-.672.288-1.568.288H-4.9c-.608,0-.992-.16-1.024-.8,0-.224-.032-2.88-.032-3.3,0-.864.192-1.056,1.024-1.056h2.272c.48,0,.96,0,.96,1.088,0,.384-.128,2.272-.128,2.688,0,.224,0,.864.928.864a1.736,1.736,0,0,0,1.216-.9.834.834,0,0,1,.864-.48H3.84c.48,0,.736.1.832.416.224.64.32.8.832.8,1.5,0,1.5-.8,1.5-1.28,0-.16-.064-1.984-.064-2.336,0-.768.416-.864.96-.864H12.32c1.088,0,1.7,0,1.7-.48a7.234,7.234,0,0,0-2.144-2.048c-.256,0-1.088,1.184-1.344,1.376-.352.288-.64.288-1.44.288H7.872c-.448,0-.992,0-.992-.768a.754.754,0,0,1,.352-.672c.384-.288.48-.352.48-.608,0-.544-2.464-1.248-2.688-1.248-.16,0-.384.064-.384.32,0,.16.16.832.16.96.032.384.064.96.064,1.088,0,.8-.416.928-.992.928H1.312c-.512,0-1.024,0-1.024-.864a.659.659,0,0,1,.224-.544c.512-.512.544-.576.544-.864,0-.224-.32-.352-.864-.544A11.266,11.266,0,0,0-1.7-20.032a.335.335,0,0,0-.384.32c0,.1.16.576.192.7a5.454,5.454,0,0,1,.16,1.312c0,.32,0,.928-.928.928h-2.3c-.7,0-1.024-.192-1.024-.9a.951.951,0,0,1,.32-.736c.48-.288.576-.352.576-.64,0-.064-.032-.1-.032-.128a8.457,8.457,0,0,0-2.656-1.024c-.288,0-.32.128-.32.288,0,.224.224,1.824.224,2.176,0,.9-.416.96-.992.96-.992,0-3.36-.064-4.352-.128-.192,0-.992-.1-1.184-.1a.085.085,0,0,0-.1.1c0,.032,0,.064.128.192ZM5.856-23.392c-.736,0-.992-.224-.992-1.152a.786.786,0,0,1,.288-.7c.512-.32.544-.352.544-.576,0-.256-.1-.352-1.024-.576-.256-.064-1.728-.448-1.824-.448-.128,0-.352.032-.352.288,0,.128.288,1.856.288,2.208,0,.864-.416.96-.928.96H-2.272c-.672,0-1.056-.032-1.056-.928a.6.6,0,0,1,.288-.608c.544-.384.576-.416.576-.672,0-.608-2.72-1.312-2.976-1.312-.192,0-.384.064-.384.32a5.755,5.755,0,0,0,.192.7,11.826,11.826,0,0,1,.224,1.632c0,.864-.608.864-.96.864H-8.512c-1.5,0-2.816-.032-4.384-.128-.224,0-1.184-.1-1.408-.1-.064,0-.128.032-.128.064,0,.064.032.064.16.224l.608.736c.1.128.16.192.288.192.1,0,.544-.064.672-.064.608-.032,1.632-.1,4.032-.1H-6.4c.9,0,.9.352.9,1.7,0,.8.032,1.12.8,1.12,1.28,0,1.376-.864,1.376-1.28C-3.3-22.144-3.3-22.56-2.3-22.56H1.824c.9,0,.9.288.9,1.44,0,.864.256,1.152.768,1.152,1.5,0,1.5-.768,1.5-1.76,0-.832.576-.832.928-.832h6.752c1.088,0,1.7,0,1.7-.448,0-.416-2.336-2.336-2.528-2.336-.32,0-1.216,1.44-1.472,1.7-.224.224-.512.256-1.376.256Zm-4.512,9.92C.352-13.472.32-13.92.32-14.688S.352-15.9,1.344-15.9H3.872c.96,0,.992.416.992,1.216,0,.768-.032,1.216-.992,1.216Zm-5.76,8c.224,0,.544,0,.544.32,0,.576-2.848,3.648-9.792,6.592-.16.064-.9.352-.9.448,0,.064.032.1.128.1.064,0,.672-.128.8-.16A21.058,21.058,0,0,0-2.24-3.552c.224-.192.64-.576.8-.576.32,0,.32.256.32.832,0,.64-.128,3.744-.128,4.448,0,.384,0,1.248.992,1.248A1.275,1.275,0,0,0,1.184.928C1.184.8.928-2.88.928-3.584V-4.672c0-.256,0-.48.192-.48.16,0,.288.16.352.256A16.294,16.294,0,0,0,3.744-2.272a16.993,16.993,0,0,0,7.84,4.352.546.546,0,0,0,.576-.352,3.073,3.073,0,0,1,1.216-1.6c.288-.224,1.888-1.184,1.888-1.216,0-.064-.032-.128-.1-.128-.1,0-.576.16-.7.192a8.237,8.237,0,0,1-1.344.1C7.68-.928,2.56-4.448,2.56-5.28c0-.192.192-.192.384-.192h9.312c1.088,0,1.7,0,1.7-.448,0-.384-2.176-2.048-2.368-2.048-.288,0-1.312,1.216-1.568,1.408C9.664-6.3,9.5-6.3,7.936-6.3H1.952c-.384,0-.992,0-.992-.928a1.01,1.01,0,0,1,.384-.96c.256-.192.384-.32.384-.544,0-.32-.128-.352-1.088-.608a8.785,8.785,0,0,0-1.728-.384c-.192,0-.416.1-.416.288a4.861,4.861,0,0,0,.192.64A5.855,5.855,0,0,1-1.12-7.488c0,.768-.128,1.184-.96,1.184H-8.608c-1.5,0-2.816-.064-4.384-.128-.192,0-1.184-.1-1.408-.1-.064,0-.128,0-.128.064s.032.064.16.224l.608.736c.1.128.16.192.288.192.1,0,.544-.064.672-.064.736-.064,1.888-.1,4.032-.1Zm35.04-18.272c.768,0,.768.576.768.672a14.2,14.2,0,0,1-.832,3.264c-.256.64-.576.64-.864.64H28.448a2.4,2.4,0,0,1-1.408-.352c-.416-.192-1.92-.96-2.08-.96a.37.37,0,0,0-.352.416c0,.192.192,1.12.192,1.312.1,1.216.128,3.712.128,4.448,0,.992-.16,5.312-.16,6.208,0,.832.192,1.024.9,1.024,1.28,0,1.408-.352,1.6-.928.1-.224.256-.256.768-.256H31.2a.815.815,0,0,1,.864.48c.064.256.128,2.464.128,2.816A20.329,20.329,0,0,1,31.872-.9c-.16.224-.352.352-1.12.352-.256,0-1.44-.1-1.7-.1-.16,0-.192.1-.192.16,0,.192.9.7,1.024.832a3.206,3.206,0,0,1,1.12,1.568.708.708,0,0,0,.7.544,3.166,3.166,0,0,0,1.92-.9,3.169,3.169,0,0,0,.9-2.528c0-.48-.064-4.7-.064-5.568,0-1.312,0-1.728.928-1.728H37.6c.7,0,.8.192.864.512.064.352.16.864.864.864a1.624,1.624,0,0,0,1.824-1.856c0-1.088-.224-5.824-.224-6.816,0-1.536,0-1.7.384-2.048.544-.48.608-.512.608-.736,0-.544-2.464-1.888-2.752-1.888-.256,0-.288.064-.672.64-.256.384-.384.416-.864.416H32.224c-.192,0-.544,0-.544-.384,0-.32.384-.832,1.12-1.792a20.529,20.529,0,0,1,1.7-2.24,1.866,1.866,0,0,1,1.056-.16H43.1c1.5,0,1.664,0,1.664-.384,0-.416-2.56-2.112-2.88-2.112-.416,0-1.76,1.408-2.112,1.536a6.263,6.263,0,0,1-1.568.1H22.24a2.925,2.925,0,0,1-1.792-.416c-.224-.1-1.664-.864-1.728-.864-.16,0-.224.16-.224.32,0,.384.288,1.952.32,2.3.256,2.208.32,6.656.32,9.056,0,2.016,0,8.672-1.472,12.544-.32.864-1.344,3.392-1.344,3.456s0,.192.1.192c.32,0,1.792-1.792,3.008-4.416C21.152-6.144,21.5-9.216,21.5-21.28c0-.288-.064-1.5-.032-1.76.064-.7.64-.7,1.024-.7Zm-2.432,9.536c-.608,0-.96-.16-.96-.928,0-3.008.064-3.2,1.024-3.2H37.6c.768,0,.832.32.9.48.032.16.192,2.528.192,2.688,0,.64-.224.96-.96.96Zm.064,5.12c-.96,0-1.024-.16-1.024-3.36,0-.576.224-.928.992-.928h9.664c.832,0,.832.7.832,1.088v2.4c0,.8-.384.8-.96.8ZM27.3-6.272c-.032.032-.832,1.632-.928,1.792a23.586,23.586,0,0,1-2.016,2.944c-.448.512-2.912,2.944-2.912,3.168,0,.128.128.128.192.128.7,0,4.288-2.656,5.44-3.552a20.893,20.893,0,0,1,2.24-1.856c.768-.288.928-.352.928-.608C30.24-4.832,27.68-6.464,27.3-6.272Zm9.248.576c-.064,0-.256.032-.256.224,0,.224.384.576.64.768A17.3,17.3,0,0,1,40.8,0c.64,1.12,1.056,1.376,1.5,1.376A1.672,1.672,0,0,0,43.68-.352c0-1.856-1.92-2.88-2.88-3.392A21.64,21.64,0,0,0,36.544-5.7Z" transform="translate(506 2109.827)" fill="#fff"/>
    <path id="パス_5" data-name="パス 5" d="M-6.432-9.1h-5.076v-1.032h-.96V-9.1h-5.076v.9h5.076v.816H-16.68v4.464h3.48a11.745,11.745,0,0,1-4.488,2.76l.576.936a11.968,11.968,0,0,0,4.644-3.288V1.008h.96V-2.508A13.006,13.006,0,0,0-6.864.768L-6.3-.18a11.227,11.227,0,0,1-4.476-2.736h3.5V-7.38h-4.236V-8.2h5.076Zm-6.036,2.544v1.008h-3.288V-6.552Zm0,1.788v1.032h-3.288V-4.764Zm4.284-.78h-3.324V-6.552h3.324Zm0,1.812h-3.324V-4.764h3.324ZM4.308-7.14h-8.64v3.9h3.84v2.9c0,.324-.06.36-.408.36L-2.568.012l.24,1.032H-.54C.288,1.044.468.624.468.024V-3.24h3.84ZM3.336-4.128h-6.7V-6.252h6.7Zm2.22-4.956H.468v-1.068H-.564v1.068H-5.556v.948H5.556ZM-4.944.684A10.233,10.233,0,0,0-2.16-2.256l-.888-.492A8.118,8.118,0,0,1-5.664-.108ZM1.92-2.292A9.3,9.3,0,0,0,4.932.612l.66-.84A8.821,8.821,0,0,1,2.808-2.784ZM12.228-9.624a12.69,12.69,0,0,1-.78,1.452v-.8H9.732v-1.152H8.8v1.152H6.756v.864H8.8V-6.5H6.384v.864H9.36A12.672,12.672,0,0,1,6.228-3.684l.408.816c.444-.216.564-.288.816-.42V.792h4.716V-4.536H9.4a9.7,9.7,0,0,0,1.248-1.1h2.148V-6.5h-1.4A20.452,20.452,0,0,0,13.14-9.228Zm-.96,7.308H8.376V-3.708h2.892Zm0,2.268H8.376V-1.524h2.892ZM9.732-6.5V-8.112h1.692A12.189,12.189,0,0,1,10.236-6.5Zm7.68-3.312H13.344V1.008h.96V-8.94h2.028A18.779,18.779,0,0,1,14.8-5.472c1.128,1.08,1.752,1.968,1.752,3.156,0,1.008-.528,1.1-.984,1.092l-.84-.012.12.984H15.7c.516,0,1.884,0,1.884-2.124A4.288,4.288,0,0,0,15.9-5.628,18.545,18.545,0,0,0,17.412-8.94Z" transform="translate(506 2130.399)" fill="#fff"/>
    <path id="パス_4" data-name="パス 4" d="M-.444-.168a10.887,10.887,0,0,1-4.62-1.344A11.415,11.415,0,0,0-2.1-5.172V-6.12H-5.52v-1.7h5.1v-.948h-5.1v-1.38h-.972v1.38H-11.58v.948h5.088v1.7h-4.2v.948H-3.3A9.9,9.9,0,0,1-5.988-2.088,8.493,8.493,0,0,1-8.472-4.824l-.84.48A8.933,8.933,0,0,0-6.9-1.5,13.5,13.5,0,0,1-11.544-.144l.456,1.068a15.15,15.15,0,0,0,5.1-1.788A13.389,13.389,0,0,0-.84.888ZM3.3-4.128a8.1,8.1,0,0,0,1.428,1.44l.54-.876A8.658,8.658,0,0,1,3.54-5.136,8.4,8.4,0,0,0,4.848-7.26v-.912H3.3v-1.956H2.328v1.956H.432v.9h3.36A8.684,8.684,0,0,1,.276-3.552l.408.984A11.172,11.172,0,0,0,2.328-3.84V1.02H3.3Zm4.308-6V-6.66H5.1v.984H7.608V-.4H4.536V.588h7V-.4H8.616v-5.28h2.64V-6.66H8.616v-3.468Z" transform="translate(506 2075.399)" fill="#fff"/>
  </g>
</svg>
