<svg xmlns="http://www.w3.org/2000/svg" width="143" height="143" viewBox="0 0 143 143">
  <g id="グループ_148" data-name="グループ 148" transform="translate(-594 -1161)">
    <circle id="楕円形_1" data-name="楕円形 1" cx="71.5" cy="71.5" r="71.5" transform="translate(594 1161)" fill="#2e2e2e"/>
    <text id="_20周年_サイトへ" data-name="20周年
サイトへ" transform="translate(665.5 1220)" fill="#fff" font-size="32" font-family="Helvetica-Bold, Helvetica" font-weight="700"><tspan x="-43.797" y="0">20</tspan><tspan y="0" font-size="26" font-family="HiraginoSans-W6, Hiragino Sans" font-weight="400">周年</tspan><tspan y="0" font-size="26"></tspan><tspan font-size="24" font-family="HiraginoSans-W6, Hiragino Sans" font-weight="400"><tspan x="-48" y="31">サイトへ</tspan></tspan></text>
    <path id="パス_2054" data-name="パス 2054" d="M36.48,34.337c-.165-.1-.373-.181-.4-.407a.362.362,0,0,1,.308-.409.367.367,0,0,1,.178.019c2.265.948,16.142,5.756,42.357,5.756s41.246-5.3,42.317-5.738a.37.37,0,0,1,.353.649c-.349.311-14.327,8.829-42.669,8.829-4.194,0-8.066-.184-11.889-.524-20.192-1.79-30.134-7.936-30.569-8.178Z" transform="translate(586.571 1231.962)" fill="#fff"/>
  </g>
</svg>
