<svg xmlns="http://www.w3.org/2000/svg" width="96" height="109.5" viewBox="0 0 96 109.5"><g transform="translate(-458 -2051)"><path d="M-23.931,343.348A48.014,48.014,0,0,1-64,296a48,48,0,0,1,48-48,48,48,0,0,1,48,48A48.016,48.016,0,0,1-7.232,343.2l-8.393,14.3Z" transform="translate(522 1803)" fill="#d4453d"/><path d="M-9.92-14.016c-.992,0-1.088-.352-1.088-1.344v-3.424c0-.672.288-.96.9-.96H-5.28c.8,0,1.344,0,1.344-.448,0-.416-2.208-2.112-2.368-2.112-.288,0-1.056,1.248-1.248,1.472-.16.16-.224.224-1.376.224h-1.216c-.864,0-.864-.7-.864-1.024a16.076,16.076,0,0,1,.16-2.816c.064-.192.8-.864.8-1.056,0-.576-3.008-1.088-3.2-1.088-.1,0-.352.032-.352.224,0,.1.192.512.192.608.352,1.152.288,8.608.288,10.528,0,.9-.032,1.216-.992,1.216h-1.824c-.9,0-.992-.512-.992-.96,0-.832,0-4.928.1-5.472.064-.224.928-.864.928-1.088,0-.192-.032-.352-.384-.512a16.7,16.7,0,0,0-3.008-.864c-.128,0-.16.064-.16.128,0,.192.192.96.224,1.152.16,1.536.16,4.928.16,6.624,0,.9-.576.928-.9.928-.48,0-2.912-.16-3.456-.16-.1,0-.128,0-.128.064,0,.032.032.064.128.224l.64.7c.1.16.16.224.288.224.1,0,.544-.064.672-.064.288-.032,1.216-.1,4.032-.1H-2.3c1.088,0,1.728,0,1.728-.448,0-.416-2.784-2.112-3.008-2.112-.288,0-.384.128-1.28,1.184-.416.48-.576.544-1.632.544Zm-18.816-11.36a.424.424,0,0,0,.192.32A17.179,17.179,0,0,1-26.5-22.5c.7,1.152.992,1.6,1.632,1.6.864,0,1.12-.768,1.12-1.44,0-2.144-2.464-3.1-4.8-3.1C-28.64-25.44-28.7-25.44-28.736-25.376Zm-2.24,6.752c-.064.1-.032.128.128.288a11.606,11.606,0,0,1,2.176,2.816c.832,1.408.928,1.568,1.5,1.568A1.216,1.216,0,0,0-26.144-15.3C-26.144-18.272-30.944-18.656-30.976-18.624Zm10.656,6.56c0,.032.1.128.128.16a15.035,15.035,0,0,1,2.624,3.3C-16.16-6.528-16-6.272-15.392-6.272a1.205,1.205,0,0,0,1.056-1.312C-14.336-9.792-20.256-12.224-20.32-12.064Zm-1.6,10.848c-.224.64,1.728,3.136,2.144,3.136a.308.308,0,0,0,.288-.256A2.161,2.161,0,0,1-18.976.576c.224-.256,1.536-1.344,1.824-1.6A29.2,29.2,0,0,0-13.12-5.856c0-.064-.032-.1-.064-.1-.064,0-.128.1-.16.1a30.184,30.184,0,0,1-4.832,3.1c-2.464,1.344-2.592,1.344-3.584,1.344C-21.856-1.408-21.92-1.28-21.92-1.216ZM-6.592-11.9a.768.768,0,0,0-.352.48c-.544,1.312-2.944,3.68-4.352,4.9a3.356,3.356,0,0,0-.608.48c0,.032.064.064.128.064A19.439,19.439,0,0,0-6.4-8.512c.224-.128,1.344-.9,1.5-.928.928-.128.96-.128.96-.448C-3.936-10.528-6.24-12.1-6.592-11.9ZM-11.584-5.7c0,.064.416.384.48.448A32.872,32.872,0,0,1-5.792.256c1.248,1.6,1.376,1.792,1.952,1.792.7,0,1.12-.608,1.12-1.408,0-3.68-8.544-6.4-8.768-6.4C-11.552-5.76-11.584-5.728-11.584-5.7ZM-31.2-5.568c1.856.864,2.56,1.92,2.848,5.184.128,1.568.224,2.528,1.44,2.528.8,0,1.408-.416,1.408-1.6A6.834,6.834,0,0,0-26.24-2.08a6.27,6.27,0,0,1-.7-2.5c0-1.312,3.328-10.944,3.328-11.616,0-.064-.064-.16-.128-.16-.16,0-.384.448-1.5,3.008-.96,2.144-1.088,2.432-2.4,5.088-1.184,2.432-1.248,2.5-3.36,2.5C-31.3-5.76-31.264-5.632-31.2-5.568ZM20.1-.032c.48,0,.864.064.928.832.064,1.12.1,1.28.832,1.28.224,0,1.952-.032,1.952-1.408,0-.224-.192-1.312-.192-1.568-.032-.64-.128-4.7-.128-5.888,0-.544.128-.768.384-.928.544-.384.608-.448.608-.64a8.174,8.174,0,0,0-2.208-2.112c-.16,0-.832.608-1.024.736A1.84,1.84,0,0,1,20-9.408H12.32a5.5,5.5,0,0,1-2.08-.352c-.288-.064-1.664-.64-1.824-.64a.227.227,0,0,0-.256.224,5.3,5.3,0,0,0,.192.672c.16.8.16,5.472.16,6.688,0,.576-.1,3.3-.1,3.936,0,.416,0,1.12,1.12,1.12A1.3,1.3,0,0,0,10.912.96c.064-.7.224-.992,1.024-.992ZM11.808-.9c-.928,0-.928-.544-.928-.9,0-.9-.032-4.736-.032-5.5,0-.992.192-1.248,1.056-1.248h8.16c.928,0,.928.544.928.96,0,.512.064,3.3.064,3.872,0,2.624,0,2.816-.992,2.816Zm-.416-25.12A9.748,9.748,0,0,0,9.76-26.56c-.064,0-.192.416-.224.512-.448,1.536-3.072,4.992-5.952,7.2-.224.16-1.408.864-1.408,1.024,0,.1.192.1.256.1A13.787,13.787,0,0,0,6.88-19.9c.864-.576,4.736-3.936,5.216-4.16.768-.352.96-.448.96-.768C13.056-25.28,12.352-25.6,11.392-26.016ZM28.256-19.84c0-3.744-9.088-6.3-9.856-6.3-.064,0-.224,0-.224.1,0,.16.192.32.384.416a38.539,38.539,0,0,1,6.624,5.824c1.056,1.408,1.408,1.632,1.952,1.632C27.776-18.176,28.256-18.848,28.256-19.84Zm-11.648.7c-.032-.128.48-.576.48-.7,0-.352-.128-.384-1.248-1.024-1.248-.7-1.472-.832-1.792-.832-.192,0-.224.16-.288.448C13.568-20.512,9.952-13.5,1.888-8.16c-.128.1-.512.352-.512.512,0,.128.224.128.256.128A11.715,11.715,0,0,0,4.256-8.7a32,32,0,0,0,9.376-7.552c1.824-2.016,2.016-2.24,2.24-2.24.32,0,.608.448.864.9a23.891,23.891,0,0,0,5.856,6.4,21.975,21.975,0,0,0,4.992,2.656c.128,0,.224-.032.512-.352a5.728,5.728,0,0,1,2.4-1.792c.224-.1.672-.256.672-.448,0-.128-.32-.16-.928-.224C22.368-12.064,16.672-18.688,16.608-19.136Z" transform="translate(506 2109.827)" fill="#fff"/><path d="M-6.432-9.1h-5.076v-1.032h-.96V-9.1h-5.076v.9h5.076v.816H-16.68v4.464h3.48a11.745,11.745,0,0,1-4.488,2.76l.576.936a11.968,11.968,0,0,0,4.644-3.288V1.008h.96V-2.508A13.006,13.006,0,0,0-6.864.768L-6.3-.18a11.227,11.227,0,0,1-4.476-2.736h3.5V-7.38h-4.236V-8.2h5.076Zm-6.036,2.544v1.008h-3.288V-6.552Zm0,1.788v1.032h-3.288V-4.764Zm4.284-.78h-3.324V-6.552h3.324Zm0,1.812h-3.324V-4.764h3.324ZM4.308-7.14h-8.64v3.9h3.84v2.9c0,.324-.06.36-.408.36L-2.568.012l.24,1.032H-.54C.288,1.044.468.624.468.024V-3.24h3.84ZM3.336-4.128h-6.7V-6.252h6.7Zm2.22-4.956H.468v-1.068H-.564v1.068H-5.556v.948H5.556ZM-4.944.684A10.233,10.233,0,0,0-2.16-2.256l-.888-.492A8.118,8.118,0,0,1-5.664-.108ZM1.92-2.292A9.3,9.3,0,0,0,4.932.612l.66-.84A8.821,8.821,0,0,1,2.808-2.784ZM12.228-9.624a12.69,12.69,0,0,1-.78,1.452v-.8H9.732v-1.152H8.8v1.152H6.756v.864H8.8V-6.5H6.384v.864H9.36A12.672,12.672,0,0,1,6.228-3.684l.408.816c.444-.216.564-.288.816-.42V.792h4.716V-4.536H9.4a9.7,9.7,0,0,0,1.248-1.1h2.148V-6.5h-1.4A20.452,20.452,0,0,0,13.14-9.228Zm-.96,7.308H8.376V-3.708h2.892Zm0,2.268H8.376V-1.524h2.892ZM9.732-6.5V-8.112h1.692A12.189,12.189,0,0,1,10.236-6.5Zm7.68-3.312H13.344V1.008h.96V-8.94h2.028A18.779,18.779,0,0,1,14.8-5.472c1.128,1.08,1.752,1.968,1.752,3.156,0,1.008-.528,1.1-.984,1.092l-.84-.012.12.984H15.7c.516,0,1.884,0,1.884-2.124A4.288,4.288,0,0,0,15.9-5.628,18.545,18.545,0,0,0,17.412-8.94Z" transform="translate(506 2130.399)" fill="#fff"/><path d="M-11.568-7.968v.948h4.524a11.935,11.935,0,0,1-4.668,5.136l.6.948A13.782,13.782,0,0,0-6.516-6.3v4.248H-9.024v.912h2.508V1.008h.984V-1.14H-3v-.912H-5.532v-4.3A13.31,13.31,0,0,0-.9-.972l.576-.972A11.694,11.694,0,0,1-5-7.02h4.56v-.948H-5.532v-2.16h-.984v2.16ZM3.3-4.128a8.1,8.1,0,0,0,1.428,1.44l.54-.876A8.658,8.658,0,0,1,3.54-5.136,8.4,8.4,0,0,0,4.848-7.26v-.912H3.3v-1.956H2.328v1.956H.432v.9h3.36A8.684,8.684,0,0,1,.276-3.552l.408.984A11.172,11.172,0,0,0,2.328-3.84V1.02H3.3Zm4.308-6V-6.66H5.1v.984H7.608V-.4H4.536V.588h7V-.4H8.616v-5.28h2.64V-6.66H8.616v-3.468Z" transform="translate(506 2075.399)" fill="#fff"/></g></svg>