<svg xmlns="http://www.w3.org/2000/svg" width="96" height="109.5" viewBox="0 0 96 109.5">
  <g id="img_gmap_pin_okinawa" transform="translate(-458 -2051)">
    <path id="path" d="M-23.931,343.348A48.014,48.014,0,0,1-64,296a48,48,0,0,1,48-48,48,48,0,0,1,48,48A48.016,48.016,0,0,1-7.232,343.2l-8.393,14.3Z" transform="translate(522 1803)" fill="#d4453d"/>
    <path id="パス_24" data-name="パス 24" d="M-13.472-8.992c.288,0,.9,0,.9.864,0,2.784,0,4.352-.032,5.5-.032.64-.352,3.36-.352,3.936,0,.928.8,1.024,1.184,1.024A1.615,1.615,0,0,0-9.952.448c0-.96-.128-2.528-.16-3.488-.032-1.376-.064-3.68-.064-5.056,0-.9.64-.9.992-.9h3.072c.384,0,.832.128.864.544a.882.882,0,0,0,.992.864,1.592,1.592,0,0,0,1.7-1.7c0-.416-.128-2.208-.128-2.592-.064-1.632-.064-3.616-.064-5.248a.709.709,0,0,1,.416-.768c.576-.384.672-.448.672-.7,0-.288-.1-.384-1.184-1.248a14.312,14.312,0,0,0-1.12-.928c-.032,0-.128-.032-.192-.032-.16,0-.7.48-.832.576a1.746,1.746,0,0,1-1.056.288h-3.2c-1.024,0-1.024-.576-1.024-.96,0-.416,0-3.008.064-3.168.1-.192.224-.256.736-.576a.655.655,0,0,0,.384-.544c0-.384-.32-.48-.928-.736a23.631,23.631,0,0,0-2.656-.9c-.192,0-.352.1-.352.256,0,.128.224.928.288,1.184a25.756,25.756,0,0,1,.16,4.576c0,.864-.64.864-.928.864h-2.112a3.445,3.445,0,0,1-2.112-.608,14.69,14.69,0,0,0-2.176-1.28.279.279,0,0,0-.288.32c0,.128.192.832.224,1.056.1.576.192,3.84.192,6.08,0,1.792-.064,4.448-.128,5.152-.032.16-.1,1.088-.1,1.184a.925.925,0,0,0,1.024,1.056,1.9,1.9,0,0,0,1.792-1.472.72.72,0,0,1,.8-.544ZM-13.44-19.1a.76.76,0,0,1,.864.64c.032.256.032,6.72.032,7.712,0,.608-.256.928-.864.928H-16.48a.814.814,0,0,1-.768-.352c-.224-.384-.224-7.424-.224-8.032a.781.781,0,0,1,.864-.9Zm7.424,0c.96,0,.96.1.96,4a37.1,37.1,0,0,1-.16,4.9.811.811,0,0,1-.8.384h-3.3a.886.886,0,0,1-.8-.384c-.16-.256-.16-.992-.16-4.608,0-4.256,0-4.288.96-4.288ZM-22.88-22.912c0-.288-.128-2.56-3.552-3.328-.256-.064-1.184-.32-1.28-.32s-.16.064-.16.1a2.07,2.07,0,0,0,.256.288,8.353,8.353,0,0,1,1.728,2.464c.928,1.888,1.024,2.112,1.76,2.112A1.265,1.265,0,0,0-22.88-22.912ZM-25.5-15.776c0-2.272-3.328-3.04-4.224-3.232-.16-.032-.864-.256-.992-.256-.1,0-.128.064-.128.1a1.506,1.506,0,0,0,.384.448,13.642,13.642,0,0,1,2.72,3.84c.224.48.448.7.9.7A1.417,1.417,0,0,0-25.5-15.776ZM-24.128.544A7.247,7.247,0,0,0-24.9-2.08a11.263,11.263,0,0,1-.992-3.488c0-1.824,3.584-12.608,3.584-12.8,0-.064-.032-.16-.128-.16-.16,0-.448.7-.576.96-1.28,2.88-2.368,5.28-3.808,7.936-1.728,3.136-1.952,3.168-2.976,3.3-1.408.192-1.568.224-1.568.352,0,.1.288.16.416.192C-27.9-5.12-27.52-3.1-27.328-.8c.1,1.28.192,2.848,1.664,2.848A1.551,1.551,0,0,0-24.128.544ZM19.488-16.544c.352,0,1.024,0,1.024.832,0,2.144,0,2.4-.928,2.4H17.92a2.735,2.735,0,0,1-1.536-.384,6.343,6.343,0,0,0-1.888-.8.254.254,0,0,0-.288.288,9.163,9.163,0,0,0,.16,1.024,25.437,25.437,0,0,1,.224,4.032c0,.8-.128,4.448-.128,5.184,0,1.5.32,1.792.864,1.792A1.361,1.361,0,0,0,16.64-3.232c.1-.512.16-.832.96-.832h1.76c.928,0,.992.384.992.992,0,3.84.032,4.9,4.96,4.9,1.216,0,3.424-.064,4.384-.672a2.184,2.184,0,0,0,1.152-1.6,14.018,14.018,0,0,0-.736-1.728c-.1-.32-.448-1.984-.48-1.984a22.131,22.131,0,0,0-.832,2.3c-.544,1.568-.928,1.568-4.16,1.568-2.272,0-2.272-.7-2.272-1.792,0-1.6,0-1.984.96-1.984h2.24c.448,0,.768,0,.96.384.416.736.512.96,1.024.96S28.9-3.2,28.9-4.7c0-.448-.256-4.832-.256-5.76,0-.448.032-1.344.416-1.568.512-.288.576-.32.576-.544,0-.928-1.792-1.76-2.016-1.76s-.928.7-1.088.8a1.765,1.765,0,0,1-.992.224H23.264c-.928,0-.96-.544-.96-1.184,0-1.76,0-2.048.96-2.048h1.728c.224,0,.736,0,.9.352.32.768.416,1.024,1.024,1.024,1.248,0,1.248-1.536,1.248-1.888,0-.64-.192-3.52-.192-4.128a7.82,7.82,0,0,1,.256-2.528c.032-.16.576-.64.576-.768,0-.48-1.664-1.7-1.856-1.7-.224,0-.864.864-1.024.992a1.435,1.435,0,0,1-.9.224H18.016a2.976,2.976,0,0,1-1.664-.416,3.7,3.7,0,0,0-1.44-.544c-.288,0-.448.128-.448.416,0,.224.16,1.12.16,1.312.1,1.664.128,4.128.128,4.384,0,.576-.1,3.072-.1,3.584,0,.928,0,1.568.9,1.568.7,0,1.024-.544,1.088-1.184.064-.448.192-.7.928-.7Zm.064-7.552c.96,0,.96.352.96,1.76,0,.672,0,1.216-.96,1.216H17.568c-.96,0-.96-.352-.96-1.76,0-.672,0-1.216.96-1.216Zm0,3.84c.352,0,.96,0,.96.832,0,1.728,0,2.016-.96,2.016H17.568c-.32,0-.96,0-.96-.832,0-1.728,0-2.016.96-2.016Zm3.808,2.848c-1.056,0-1.056-.288-1.056-1.664,0-.9.128-1.184,1.056-1.184h1.664c.48,0,1.056,0,1.056.928,0,1.6,0,1.92-1.088,1.92Zm0-3.712c-1.056,0-1.056-.256-1.056-1.952,0-.608.064-1.024,1.056-1.024h1.76c1.056,0,1.056.256,1.056,1.952,0,.608-.064,1.024-1.056,1.024ZM19.488-8.384c.9,0,.992.384.992,1.248,0,1.92-.032,2.208-1.024,2.208h-1.92c-.9,0-1.056-.192-1.056-2.368,0-.928.288-1.088.992-1.088Zm3.84,3.456c-1.024,0-1.024-.448-1.024-1.344,0-1.856,0-2.112,1.024-2.112H25.7c.864,0,1.056.32,1.056,1.056,0,2.176,0,2.4-1.056,2.4Zm-3.84-7.552c.992,0,.992.384.992,1.536,0,1.376,0,1.7-.992,1.7H17.472c-1.024,0-1.024-.352-1.024-1.536,0-1.344,0-1.7,1.024-1.7Zm3.84,3.232c-1.024,0-1.024-.288-1.024-1.728,0-1.12,0-1.5,1.024-1.5h2.4c1.056,0,1.056.32,1.056,1.7,0,1.216,0,1.536-1.056,1.536ZM10.56-13.536c-.256.352-3.36.416-3.424.416-.192,0-.576,0-.576-.32,0-.16.1-.288.928-1.44.544-.7,1.984-2.688,3.04-4.416a1.646,1.646,0,0,1,.928-.864.663.663,0,0,0,.416-.576c0-.544-1.856-1.76-2.208-1.76-.32,0-.32.064-.672,1.152-.352.992-2.528,5.792-3.328,7.2a1.73,1.73,0,0,1-1.76,1.12c-.288,0-1.792-.16-1.888-.16-.352,0-.416.128-.416.384,0,.48.544,2.56,1.184,2.56.16,0,.768-.48.928-.512.1-.032,2.112-.48,2.3-.48.448,0,.512.352.512.9v7.1c0,.7-.128,3.776-.128,4.416,0,.9.16,1.216.864,1.216A1.472,1.472,0,0,0,8.8.768c0-.384-.1-1.76-.128-2.56-.1-1.984-.224-4.96-.224-6.016,0-.512,0-3.424.1-3.712.16-.512,1.568-.64,1.888-.64a.446.446,0,0,1,.48.448c.128.9.224,1.472.832,1.472a1.66,1.66,0,0,0,1.472-1.824c0-1.888-3.04-4.736-3.456-4.736-.032,0-.064.032-.064.1,0,.16.576,1.408.672,1.7a3.548,3.548,0,0,1,.256,1.12A.818.818,0,0,1,10.56-13.536ZM6.784-26.784a.257.257,0,0,0-.288.192l-.192.96c-.8,3.04-1.248,4.7-1.824,4.7a12.9,12.9,0,0,1-1.472-.448C2.784-21.408,1.824-21.5,1.7-21.5c-.064,0-.16,0-.16.1,0,.032,2.272,2.688,2.624,3.1.96,1.12,1.056,1.248,1.536,1.248.736,0,.864-.576.864-.992a2.292,2.292,0,0,0-.384-1.28c-.352-.544-.416-.608-.416-.864a1.012,1.012,0,0,1,.192-.544c.416-.608,1.12-1.568,1.536-2.176.8-1.152.9-1.28,1.216-1.408.448-.192.608-.224.608-.544C9.312-25.472,7.424-26.784,6.784-26.784ZM4.736-9.216a3.533,3.533,0,0,0-1.024-.416c-.384,0-.384.128-.384,1.312A54.193,54.193,0,0,1,2.016-.96C1.92-.736,1.472.9,1.472.928c0,.1.064.128.1.128.288,0,1.92-3.136,2.656-4.96.16-.416.864-2.528,1.024-2.976A7.259,7.259,0,0,0,5.92-8.192C5.92-8.416,5.792-8.608,4.736-9.216Zm5.888.512a3.847,3.847,0,0,0-1.408-.64.143.143,0,0,0-.128.1,1.342,1.342,0,0,0,.288.448,21.534,21.534,0,0,1,1.216,2.656c.7,2.3.768,2.56,1.5,2.56A1.088,1.088,0,0,0,13.12-4.8C13.12-6.272,11.872-7.808,10.624-8.7Z" transform="translate(506 2109.827)" fill="#fff"/>
    <path id="パス_23" data-name="パス 23" d="M-10.044,1V-2.58h3.276V-8.112h-3.276V-10.14h-1.008v2.028h-3.24V-2.58h3.24V1Zm-1.008-4.512H-13.32v-3.66h2.268Zm3.3,0h-2.292v-3.66h2.292Zm-6.78-5.28a13.953,13.953,0,0,0-2.088-1.272l-.54.8a10.844,10.844,0,0,1,2.04,1.32Zm-.576,3.1a12.465,12.465,0,0,0-2.1-1.2l-.5.864A8.407,8.407,0,0,1-15.72-4.812ZM-17.064.948a18.608,18.608,0,0,0,2.472-4.272l-.828-.612A13.786,13.786,0,0,1-17.748.024ZM5.112-9.8H-.8v3.78H1.668v.7H-.984v4.044H1.668V.036c0,.84.636.888,1.044.888h1.9c.912,0,1-.816,1.068-1.716l-.9-.264c-.048,1-.06,1.1-.468,1.1H2.844c-.264,0-.3-.072-.3-.312v-1.02H5.256V-5.328H2.544v-.7H5.112ZM1.668-8.232H.072v-.84h1.6Zm0,1.488H.072V-7.6h1.6ZM4.236-8.232H2.544v-.84H4.236Zm0,1.488H2.544V-7.6H4.236ZM1.668-3.684H-.12v-.924H1.668Zm0,1.656H-.12v-.984H1.668ZM4.392-3.684H2.544v-.924H4.392Zm0,1.656H2.544v-.984H4.392Zm-6.72-7.02c-.384.756-.792,1.488-1.236,2.22-.144-.144-.288-.3-.624-.6a16.168,16.168,0,0,0,1.344-2.46l-.888-.336A13.274,13.274,0,0,1-4.824-7.968c-.168-.12-.252-.192-.372-.276l-.456.768a12.563,12.563,0,0,1,1.6,1.44c-.108.18-.3.492-.7,1.08-.336,0-.5,0-.84-.012l.1.888c.252,0,1.452-.084,1.728-.108V1h.888V-4.248c.576-.048.768-.072.9-.084.072.228.1.372.144.576l.816-.3A12.754,12.754,0,0,0-1.788-6.2l-.756.288c.1.228.18.42.324.84-.516.024-1.38.072-1.62.084A34.277,34.277,0,0,0-1.488-8.7ZM-4.752.264a13.861,13.861,0,0,0,.5-3.5L-5.1-3.312a9.987,9.987,0,0,1-.492,3.1ZM-1.236-.6A12.985,12.985,0,0,0-1.7-3.312L-2.46-3.2a14,14,0,0,1,.348,2.76ZM9.072-9.768v5.652h7.536V-9.768Zm6.576,3.24H10.02v-.84h5.628Zm0,1.632H10.02v-.9h5.628Zm0-3.192H10.02v-.9h5.628Zm-3.12,5.64h5.028v-.864H7.9V-9.468H6.912v7.02h4.6V1.008h1.02ZM6.888.876a8.871,8.871,0,0,0,3.18-2.436L9.24-2.028A6.69,6.69,0,0,1,6.276.048ZM13.944-1.56A10.121,10.121,0,0,0,17.112.84l.6-.84a8.719,8.719,0,0,1-2.976-2.064Z" transform="translate(506 2130.399)" fill="#fff"/>
    <path id="パス_16" data-name="パス 16" d="M-.444-.168a10.887,10.887,0,0,1-4.62-1.344A11.415,11.415,0,0,0-2.1-5.172V-6.12H-5.52v-1.7h5.1v-.948h-5.1v-1.38h-.972v1.38H-11.58v.948h5.088v1.7h-4.2v.948H-3.3A9.9,9.9,0,0,1-5.988-2.088,8.493,8.493,0,0,1-8.472-4.824l-.84.48A8.933,8.933,0,0,0-6.9-1.5,13.5,13.5,0,0,1-11.544-.144l.456,1.068a15.15,15.15,0,0,0,5.1-1.788A13.389,13.389,0,0,0-.84.888ZM3.3-4.128a8.1,8.1,0,0,0,1.428,1.44l.54-.876A8.658,8.658,0,0,1,3.54-5.136,8.4,8.4,0,0,0,4.848-7.26v-.912H3.3v-1.956H2.328v1.956H.432v.9h3.36A8.684,8.684,0,0,1,.276-3.552l.408.984A11.172,11.172,0,0,0,2.328-3.84V1.02H3.3Zm4.308-6V-6.66H5.1v.984H7.608V-.4H4.536V.588h7V-.4H8.616v-5.28h2.64V-6.66H8.616v-3.468Z" transform="translate(506 2075.399)" fill="#fff"/>
  </g>
</svg>
