<svg xmlns="http://www.w3.org/2000/svg" width="96" height="109.5" viewBox="0 0 96 109.5">
  <g id="img_gmap_pin_sendai" transform="translate(-458 -2051)">
    <path id="path" d="M-23.931,343.348A48.014,48.014,0,0,1-64,296a48,48,0,0,1,48-48,48,48,0,0,1,48,48A48.016,48.016,0,0,1-7.232,343.2l-8.393,14.3Z" transform="translate(522 1803)" fill="#d4453d"/>
    <path id="パス_22" data-name="パス 22" d="M-31.168-11.2c.288-.128,3.52-3.456,4.16-4.128.832-.9.928-.992,1.056-.992.352,0,.352,2.016.352,2.432,0,1.824-.16,11.264-.256,12.608a20.791,20.791,0,0,0-.128,2.3c0,.32,0,1.312.992,1.312a1.542,1.542,0,0,0,1.472-.96c.032-.192.032-2.432.032-2.688,0-1.568,0-12.736.032-13.312,0-.224.1-1.952.128-2.048.064-.16.768-.768.768-.96,0-.352-.512-.544-.672-.608-.32-.128-.608-.256-.608-.576,0-.192.1-.352.352-.672.512-.64,2.944-4.064,3.744-4.544.608-.384.672-.416.672-.576,0-.64-2.912-2.112-3.392-2.112-.224,0-.224.1-.288.992-.064.96-.832,2.3-2.752,5.536-.256.448-5.824,8.768-5.824,8.928C-31.328-11.168-31.2-11.2-31.168-11.2Zm15.04,9.312c-1.056,0-1.088-.384-1.088-1.152,0-1.856.1-10.048.1-11.712,0-1.728.1-1.888.512-2.176.32-.192.608-.384.608-.672,0-.256-.32-.48-.544-.544-.96-.288-2.72-.864-2.848-.864-.1,0-.224,0-.224.128,0,.224.288,1.12.32,1.312a13.721,13.721,0,0,1,.128,2.3c0,9.792-.16,12.48-.384,15.744,0,.128-.064.9-.064.96,0,.544.128.832.9.832a1.339,1.339,0,0,0,1.5-1.5c0-1.568,0-1.824,1.088-1.824h9.312c.448,0,.992,0,.992.864,0,.192,0,1.344.032,1.472a.781.781,0,0,0,.768.608,2.35,2.35,0,0,0,1.472-.576,1.449,1.449,0,0,0,.16-.864c0-13.056,0-14.528.064-16.736.032-.8.224-1.024.544-1.248.48-.352.576-.416.576-.672,0-.384-.128-.416-1.376-.8a20.949,20.949,0,0,0-2.272-.64c-.064,0-.224,0-.224.128,0,.224.32,1.216.352,1.408.1.608.128,1.44.128,10.3,0,.928,0,5.024-.16,5.5-.16.416-.736.416-.96.416H-9.5c-.8,0-.992-.288-.992-.96,0-1.408-.064-7.584-.064-8.864,0-1.6,0-10.912.32-11.616.032-.064.608-.768.64-.8a.809.809,0,0,0,.192-.48c0-.48-.16-.512-1.728-.864-.288-.064-1.472-.32-1.664-.32-.1,0-.32,0-.32.16a8.409,8.409,0,0,0,.288.96A37.211,37.211,0,0,1-12.672-20c0,11.968,0,13.28-.1,16.256-.032,1.536-.032,1.856-1.024,1.856Zm41.44-15.52c-.064.128-.16.16-1.152.224-3.328.256-9.312.48-12.512.48-.064,0-.7,0-.7-.256s3.136-3.808,3.68-4.512a22.686,22.686,0,0,1,2.336-2.816c.128-.1.8-.288.928-.352a.39.39,0,0,0,.192-.32c0-.736-3.616-1.888-3.872-1.888-.16,0-.16.064-.224.608-.288,2.816-3.9,8.256-4.128,8.576-.544.9-.736.992-1.856.992-.512,0-2.112-.1-4.16-.256-.16,0-.864-.1-.992-.1-.192,0-.288,0-.288.256,0,.288.384,3.232.992,3.232a3.274,3.274,0,0,0,.7-.448c.7-.32,2.848-.48,16.96-1.792.736-.064,4.224-.48,4.64-.48.448,0,.7.1,1.216.992,1.344,2.368,1.472,2.624,2.08,2.624A1.464,1.464,0,0,0,30.464-14.3c0-3.52-6.912-6.848-7.776-6.848-.064,0-.1,0-.1.064C22.592-20.736,25.632-18.016,25.312-17.408ZM9.952-10.4a3.693,3.693,0,0,1-1.408-.224,9.8,9.8,0,0,0-2.4-.768c-.224,0-.416.064-.416.256,0,.16.128.8.128.928.1,1.12.128,2.112.128,3.872,0,.48,0,4.7-.128,6.656-.032.448-.064.8-.064.928,0,1.12.576,1.12.8,1.12A1.9,1.9,0,0,0,8.448.416C8.48-.16,8.7-.416,9.44-.416H22.464c.288,0,.96,0,.96.9,0,.736,0,1.216.9,1.216.128,0,1.792,0,1.792-2.24,0-.8-.16-4.352-.16-5.056,0-3.168.1-3.264.48-3.552.256-.192.48-.384.48-.64,0-.7-1.536-1.792-1.92-1.792-.224,0-.288.1-.96.768a1.6,1.6,0,0,1-1.344.416ZM22.5-9.536c.992,0,.992.352.992,1.7v5.28c0,.832-.032,1.28-.992,1.28H9.344c-.992,0-.992-.384-.992-1.7v-5.28c0-.832.032-1.28,1.024-1.28Z" transform="translate(506 2109.827)" fill="#fff"/>
    <path id="パス_21" data-name="パス 21" d="M-8.484-7.26h-7.032v3.24h2.928a6.175,6.175,0,0,1-.348,1.14h-3.72V.792H-7.32V-2.88h-4.6a11.741,11.741,0,0,0,.336-1.14h3.1ZM-6.7-6.5V-9.168h-4.812v-.972h-1.008v.972H-17.28V-6.5h.984V-8.256H-7.68V-6.5ZM-9.4-4.836h-5.2V-6.444h5.2Zm1.08,4.8h-7.356V-2.052h7.356ZM2.172-7.32a28.438,28.438,0,0,0,.468,5.3A7.272,7.272,0,0,1-.072.168L.564.984A8.978,8.978,0,0,0,2.928-.924c.288.876.684,1.956,1.5,1.956.468,0,.816-.336,1.236-1.98L4.932-1.5c-.072.348-.3,1.32-.54,1.32-.324,0-.66-1.284-.744-1.692a13.323,13.323,0,0,0,1.7-4.344L4.44-6.48A12.24,12.24,0,0,1,3.4-3.288C3.2-4.692,3.12-6.636,3.108-7.32h2.46v-.912H3.084c-.012-.72-.012-1.284-.012-1.884H2.124c0,.18.024,1.56.024,1.884h-4.02v3.816C-1.872-1.392-2.988-.24-3.564.36l.84.66a7.7,7.7,0,0,0,1.788-5.3v-.528H.648a20.6,20.6,0,0,1-.228,3.1c-.072.168-.228.18-.4.18l-.9-.012.132.912H.144c.348,0,.744-.012.948-.348.42-.684.42-3.684.42-4.716H-.936V-7.32ZM-2.316-2.94a9.5,9.5,0,0,1-.948.4V-6.276h.948v-.912h-.948v-2.928h-.948v2.928h-1.32v.912h1.32v4.068a12.19,12.19,0,0,1-1.416.432L-5.5-.768A21.7,21.7,0,0,0-2.232-2.052Zm7.7-5.94a6.469,6.469,0,0,0-1.272-1.3l-.672.564a7.482,7.482,0,0,1,1.248,1.32Zm3.684-.888v5.652h7.536V-9.768Zm6.576,3.24H10.02v-.84h5.628Zm0,1.632H10.02v-.9h5.628Zm0-3.192H10.02v-.9h5.628Zm-3.12,5.64h5.028v-.864H7.9V-9.468H6.912v7.02h4.6V1.008h1.02ZM6.888.876a8.871,8.871,0,0,0,3.18-2.436L9.24-2.028A6.69,6.69,0,0,1,6.276.048ZM13.944-1.56A10.121,10.121,0,0,0,17.112.84l.6-.84a8.719,8.719,0,0,1-2.976-2.064Z" transform="translate(506 2130.399)" fill="#fff"/>
    <path id="パス_4" data-name="パス 4" d="M-.444-.168a10.887,10.887,0,0,1-4.62-1.344A11.415,11.415,0,0,0-2.1-5.172V-6.12H-5.52v-1.7h5.1v-.948h-5.1v-1.38h-.972v1.38H-11.58v.948h5.088v1.7h-4.2v.948H-3.3A9.9,9.9,0,0,1-5.988-2.088,8.493,8.493,0,0,1-8.472-4.824l-.84.48A8.933,8.933,0,0,0-6.9-1.5,13.5,13.5,0,0,1-11.544-.144l.456,1.068a15.15,15.15,0,0,0,5.1-1.788A13.389,13.389,0,0,0-.84.888ZM3.3-4.128a8.1,8.1,0,0,0,1.428,1.44l.54-.876A8.658,8.658,0,0,1,3.54-5.136,8.4,8.4,0,0,0,4.848-7.26v-.912H3.3v-1.956H2.328v1.956H.432v.9h3.36A8.684,8.684,0,0,1,.276-3.552l.408.984A11.172,11.172,0,0,0,2.328-3.84V1.02H3.3Zm4.308-6V-6.66H5.1v.984H7.608V-.4H4.536V.588h7V-.4H8.616v-5.28h2.64V-6.66H8.616v-3.468Z" transform="translate(506 2075.399)" fill="#fff"/>
  </g>
</svg>
