<svg xmlns="http://www.w3.org/2000/svg" width="96" height="109.5" viewBox="0 0 96 109.5"><g transform="translate(-458 -2051)"><path d="M-23.931,343.348A48.014,48.014,0,0,1-64,296a48,48,0,0,1,48-48,48,48,0,0,1,48,48A48.016,48.016,0,0,1-7.232,343.2l-8.393,14.3Z" transform="translate(522 1803)" fill="#d4453d"/><path d="M-6.912-.032c.416,0,.9,0,.96.8.064.672.1,1.024.992,1.024,1.536,0,1.536-1.536,1.536-2.24,0-.928-.224-4.96-.224-5.792,0-.608,0-2.5.288-2.72.576-.544.672-.576.672-.768,0-.736-2.336-1.728-2.4-1.728-.256,0-.384.192-.768.768-.224.384-.48.448-1.088.448h-8.64a2.65,2.65,0,0,1-1.5-.384,4.131,4.131,0,0,0-1.12-.576c-.384,0-.384.416-.384.576,0,.48.1,2.624.1,3.072,0,1.344-.1,7.264-.1,8.448,0,.544,0,1.12.864,1.12.96,0,1.216-.8,1.44-1.472.192-.576.48-.576.8-.576ZM-15.3-5.5c-.992,0-.992-.448-.992-1.952s0-1.952.992-1.952h2.112c.992,0,.992.448.992,1.952s0,1.952-.992,1.952Zm-.064,4.64c-.928,0-.928-.288-.928-1.824,0-1.76,0-1.984.928-1.984h2.272c.928,0,.928.288.928,1.824,0,1.76,0,1.984-.928,1.984Zm6.24,0c-1.056,0-1.056-.288-1.056-1.92,0-1.568,0-1.888,1.056-1.888h2.208c1.056,0,1.056.288,1.056,1.92,0,1.568,0,1.888-1.056,1.888Zm0-4.64c-1.024,0-1.024-.256-1.024-2.624,0-.928.128-1.28,1.024-1.28h2.24c.9,0,1.024.384,1.024,1.28,0,2.368,0,2.624-1.024,2.624ZM-13.7-20.48a2.744,2.744,0,0,1-1.792-.448,5.181,5.181,0,0,0-1.28-.64c-.128,0-.256.032-.256.192s.128.9.128,1.056c.032.8.064,1.6.064,2.5,0,.7-.16,4.288-.16,4.352,0,.64.256.9.9.9.512,0,.64-.128,1.376-.864a1.281,1.281,0,0,1,1.024-.416h5.344a.849.849,0,0,1,.928.544c.224.544.32.768.864.768a1.5,1.5,0,0,0,1.536-1.312c0-.7-.128-4-.128-4.448a1.242,1.242,0,0,1,.32-1.024c.608-.48.672-.512.672-.7,0-.544-2.176-1.6-2.368-1.6-.224,0-.32.16-.7.7-.16.224-.384.448-1.088.448Zm5.376.832c.992,0,.992.256.992,2.624,0,1.856,0,2.336-.992,2.336H-13.7c-.96,0-.96-.256-.96-2.624,0-1.824,0-2.336.96-2.336Zm-14.112-.1c.352,0,.672.032.672.32a2.234,2.234,0,0,1-.448.96A43.444,43.444,0,0,1-31.04-8.1c-.224.192-.256.32-.192.32a13.972,13.972,0,0,0,4.448-2.816,10.111,10.111,0,0,1,.864-.64c.192,0,.256.128.32.32.032.192.032,1.888.032,2.272,0,.64-.16,6.08-.192,6.976-.032.448-.192,2.592-.192,2.88,0,.48,0,1.088.992,1.088,1.28,0,1.408-1.088,1.408-1.632,0-1.632-.192-9.664-.192-11.488,0-1.024,0-1.12.32-1.12.512,0,1.12,1.152,1.344,1.7.48,1.056.7,1.312,1.184,1.312s.992-.608.992-1.344a2.87,2.87,0,0,0-2.656-2.5c-1.024-.16-1.12-.16-1.12-.416a.926.926,0,0,1,.288-.64c.736-.864,1.472-1.76,2.176-2.656a15.249,15.249,0,0,1,2.3-2.56c.672-.192.768-.224.768-.48,0-.448-1.44-2.24-1.952-2.24-.224,0-.416.224-.672.512-.512.608-.544.672-1.152.672h-.864c-.992,0-.992-.288-.992-2.848a2.336,2.336,0,0,1,.352-1.376c.032-.064.48-.608.48-.672,0-.544-2.688-1.152-2.848-1.152-.1,0-.32.032-.32.224,0,.16.16.992.192,1.184.032.32.224,3.3.224,3.616,0,.992-.352.992-1.312.992-.48,0-2.88-.192-3.424-.192-.064,0-.1.032-.1.064,0,.064,0,.1.128.224l.608.736c.128.128.16.192.288.192.1,0,.576-.064.672-.064.32-.032,1.248-.1,4.064-.1Zm8.96-4.8c-1.5,0-2.816-.032-4.384-.1-.192,0-1.184-.128-1.408-.128-.064,0-.128.032-.128.1,0,.032.032.064.16.192l.608.736c.1.128.16.224.288.224.1,0,.544-.1.672-.1.8-.064,1.7-.064,4.032-.064h10.08c1.28,0,1.7-.1,1.7-.416A6.075,6.075,0,0,0-4.128-25.92c-.224,0-.512.192-.992.864-.352.512-.512.512-1.92.512ZM12.736-5.056c-.992,0-.992-.448-.992-1.28,0-.8,0-3.936.064-4.48,0-.128.352-.672.352-.832,0-.448-2.368-.9-2.464-.9-.16,0-.192.064-.192.192a6.408,6.408,0,0,0,.128.768A13.618,13.618,0,0,1,9.7-10.208c0,3.2-.032,4.32-.064,5.184,0,.352-.1,2.176-.1,2.592,0,.192,0,.928.736.928a1.825,1.825,0,0,0,1.408-.832c.128-.192.128-.256.128-1.024,0-.832.608-.832.928-.832H19.52c.992,0,.992.48.992,1.152,0,.352.032.8.736.8A1.537,1.537,0,0,0,22.72-3.712c0-.768-.128-4.352-.128-4.864a20.889,20.889,0,0,1,.1-2.528,6.155,6.155,0,0,0,.384-.8c0-.256-.1-.288-.992-.512a16.086,16.086,0,0,0-1.6-.352c-.224,0-.256.1-.256.288,0,.16.128.928.128,1.088.032.256.128,4.192.128,5.44,0,.9-.64.9-.992.9H17.952c-.416,0-.928,0-.96-.8-.032-.448-.032-3.872-.032-4.7,0-.608,0-4.256.032-4.512a.76.76,0,0,1,.864-.576h4.7c1.5,0,1.664,0,1.664-.448,0-.48-1.92-1.984-2.432-1.984-.352,0-.448.128-1.216,1.056-.416.544-.576.544-2.048.544H14.272c-1.5,0-2.912-.064-4.384-.128-.192,0-1.184-.1-1.408-.1-.1,0-.128,0-.128.064a.406.406,0,0,0,.128.224l.64.736c.1.128.16.192.288.192.1,0,.544-.064.672-.064.416-.032,1.6-.1,3.744-.1.544,0,.96,0,1.12.384a37.783,37.783,0,0,1,.192,4.768c0,2.368-.064,4.7-.128,4.9a.851.851,0,0,1-.96.544ZM6.688-24.864c-.64,0-.928-.192-1.824-.7A5.2,5.2,0,0,0,3.2-26.24c-.128,0-.16.128-.16.256,0,.1.1,1.152.128,1.344.16,1.952.224,4.32.224,8.224,0,4.8-.032,12.256-.192,16.608-.032.512-.032.9-.032.96,0,.288,0,1.056.768,1.056A1.994,1.994,0,0,0,5.792.192c0-1.12-.1-6.176-.1-7.2,0-1.888-.128-13.472-.128-16,0-.672.1-1.024.992-1.024H25.472c.32,0,.832,0,.96.576.032.224.1,15.136.1,16.416,0,.832,0,5.6-.128,6.016-.128.384-.608.384-.96.384-.48,0-2.56-.128-3.008-.128-.16,0-.32,0-.32.16,0,.032.032.256.48.384a4.906,4.906,0,0,1,2.656,2.048c.16.32.288.416.736.416A4.113,4.113,0,0,0,28.16,1.5C28.9.9,28.9.224,28.9-1.888c0-.16-.16-5.344-.16-6.336-.064-3.808-.064-7.424-.064-12.192a11.856,11.856,0,0,1,.192-2.848,2.307,2.307,0,0,1,.48-.416.514.514,0,0,0,.16-.352c0-.672-2.08-1.888-2.4-1.888-.224,0-.48.288-.96.736a1.451,1.451,0,0,1-.96.32Zm3.776,1.92c-.128-.032-.224,0-.224.16s.032.224.384.8a17.35,17.35,0,0,1,1.5,3.3c.288.96.416,1.408.9,1.408.736,0,1.152-.736,1.152-1.632a3.1,3.1,0,0,0-1.44-2.592A7.649,7.649,0,0,0,10.464-22.944Zm8.96-.384c-.128,0-.16.1-.416.9-.32.9-2.4,5.28-2.4,5.5,0,.032,0,.16.128.16.544,0,3.424-3.808,3.968-4.224.16-.128,1.152-.544,1.152-.768C21.856-22.112,19.648-23.328,19.424-23.328Z" transform="translate(506 2109.827)" fill="#fff"/><path d="M-13.332-3.828V.792h6.468V-4.692h-6.468v.84A8.947,8.947,0,0,1-14.688-5.3a8.975,8.975,0,0,0,1.1-1.992v-.876h-1.428v-1.956h-.948v1.956h-1.6V-7.3h2.988a9.141,9.141,0,0,1-3.168,3.732l.408.984A7.835,7.835,0,0,0-15.96-3.756V1.008h.948V-4.368A14.666,14.666,0,0,0-13.9-2.952Zm2.784,1.44H-12.42V-3.924h1.872Zm0,2.4H-12.42v-1.68h1.872Zm2.772-2.4H-9.684V-3.924h1.908Zm0,2.4H-9.684v-1.68h1.908Zm.528-8.244h-5.664v2.82h5.664ZM-8.16-6.168h-3.828V-7.5H-8.16ZM-6.432-9.78h-7.236v.828h7.236Zm1.248.072V1.008h1v-9.78h8.4v8.46c0,.3-.132.348-.348.348L2.016.024l.144.984H4.2A.886.886,0,0,0,5.2,0V-9.708ZM-3.7-6.6v.876H-.468v4.08H-2.124v-3.3h-.924V-.756h6.1V-4.944H2.1v3.3H.456v-4.08H3.7V-6.6H1.872A10.566,10.566,0,0,0,2.5-8.3l-.972-.2A12.374,12.374,0,0,1,.876-6.6H-.888a9.648,9.648,0,0,0-.648-1.908l-.96.2a8.57,8.57,0,0,1,.612,1.7ZM9.072-9.768v5.652h7.536V-9.768Zm6.576,3.24H10.02v-.84h5.628Zm0,1.632H10.02v-.9h5.628Zm0-3.192H10.02v-.9h5.628Zm-3.12,5.64h5.028v-.864H7.9V-9.468H6.912v7.02h4.6V1.008h1.02ZM6.888.876a8.871,8.871,0,0,0,3.18-2.436L9.24-2.028A6.69,6.69,0,0,1,6.276.048ZM13.944-1.56A10.121,10.121,0,0,0,17.112.84l.6-.84a8.719,8.719,0,0,1-2.976-2.064Z" transform="translate(506 2130.399)" fill="#fff"/><path d="M-.444-.168a10.887,10.887,0,0,1-4.62-1.344A11.415,11.415,0,0,0-2.1-5.172V-6.12H-5.52v-1.7h5.1v-.948h-5.1v-1.38h-.972v1.38H-11.58v.948h5.088v1.7h-4.2v.948H-3.3A9.9,9.9,0,0,1-5.988-2.088,8.493,8.493,0,0,1-8.472-4.824l-.84.48A8.933,8.933,0,0,0-6.9-1.5,13.5,13.5,0,0,1-11.544-.144l.456,1.068a15.15,15.15,0,0,0,5.1-1.788A13.389,13.389,0,0,0-.84.888ZM3.3-4.128a8.1,8.1,0,0,0,1.428,1.44l.54-.876A8.658,8.658,0,0,1,3.54-5.136,8.4,8.4,0,0,0,4.848-7.26v-.912H3.3v-1.956H2.328v1.956H.432v.9h3.36A8.684,8.684,0,0,1,.276-3.552l.408.984A11.172,11.172,0,0,0,2.328-3.84V1.02H3.3Zm4.308-6V-6.66H5.1v.984H7.608V-.4H4.536V.588h7V-.4H8.616v-5.28h2.64V-6.66H8.616v-3.468Z" transform="translate(506 2075.399)" fill="#fff"/></g></svg>