<svg xmlns="http://www.w3.org/2000/svg" width="269.417" height="65.28" viewBox="0 0 269.417 65.28">
  <g id="グループ_147" data-name="グループ 147" transform="translate(-312.558 -275.477)">
    <path id="パス_2009" data-name="パス 2009" d="M182.858,12.888H206.78v8.717H182.858Zm2.022,10.53h19.877v8.09H184.88Zm0,9.9h19.877v8.09H184.88Zm.418,10.043h19.04V62.2H185.3Zm3.069-40.591h12.9v8.717h-12.9Zm7.95,47.984h-3v3.488h3ZM206.431,62.2v-7.6H220.8V52.572h-9.625V46.155H220.8V44.273H208.035V37.019H220.8V35.066h-10.95v-18.2H242.21v18.2H231.26v1.954h12.833v7.253H231.26v1.883h9.694v6.416H231.26v2.023h14.367v7.6Zm31.594-49.8v3.069H227.563V12.4h-3.138v3.069h-8.788a27.67,27.67,0,0,1-.7-3.069h-8.09V4.588h7.114c-.07-.906-.07-1.883-.07-2.859V1.241h10.532V4.588h3.138V1.241h10.462V4.588h7.183V12.4ZM222.4,24.255h-2.789v3.557H222.4Zm10.043,0h-2.789v3.557h2.789Z" transform="translate(129.7 275.632)" fill="#fff"/>
    <path id="パス_2010" data-name="パス 2010" d="M279.563,59.538l1.185-5.58h-8.788l2.163,5.58c-10.392,4.115-22.6,4.882-22.6,4.882L249.5,57.934l10.391-3.976h-5.51V27.6c-.279.279-.488.628-.767.906l-6.765-2.789,3.836-10.88h-3.836V6.114h6.9L255.851.186l10.67,3.627-.767,2.3h10.113v.07c0,.977-.07,11.02-2.719,19.25L263.94,24.6l.558-9.763h-2.3a60.594,60.594,0,0,1-7.114,11.926h42.543v27.2h-7.812c4.185.7,9.416,1.6,14.228,2.721L301.6,65.257Zm7.6-26.5H264.847v1.883h22.318Zm0,6.068H264.847v1.813h22.318Zm0,6H264.847v2.022h22.318ZM277.819,4.441h25.944V24.875H277.819Zm15.484,8.02h-5.022v4.394H293.3Z" transform="translate(137.679 275.5)" fill="#fff"/>
    <path id="パス_2011" data-name="パス 2011" d="M353.167,63.94V32.835h-2.651c-1.743,15.832-4.185,31.594-4.185,31.594l-9.345-.7.7-12.205-6.277,4.6-2.721-5.091v12.9H316.481V55.5a48.129,48.129,0,0,1-4.881,4.185L306.508,56.2l8.717-14.088H308.6V33.392h7.881V30.324h-9.554V21.606h4.534l-.908-5.928,4.115-1.185h-6.416V5.775h8.229V1.241h12.205V5.775h8.23v8.717h-7.393l6.486,2.371a30.8,30.8,0,0,1-2.511,4.743h4.743v8.719h-9.555v3.068h7.882v8.719h-7.882V44.9l3.209-2.162a25.543,25.543,0,0,1,6,5.58L340.4,5.775l26.015-2.79,1.325,10.81c-5.789.558-11.229.767-15.623.837-.139,2.93-.418,6.137-.7,9.486H369.7v8.717h-5.021V63.94Zm-27.2-49.448h-7.532a40.594,40.594,0,0,1,2.929,5.858L316.9,21.606h6.766Z" transform="translate(145.117 275.632)" fill="#fff"/>
    <path id="パス_2012" data-name="パス 2012" d="M409.73,54.121v9.974H397.525V54.121H371.65V45.4h9V31.943c-2.65,3.9-4.464,6.416-4.464,6.416l-8.16-4.115L382.67,0l12.972,5.44c-.628,1.535-1.325,3.069-2.093,4.673h33.477v8.717h-17.3v7.952h10.392V35.5H409.73v9.9h19.458v8.717Zm-12.205-35.29h-8.648c-1.6,2.79-3.278,5.51-4.882,7.952h13.53Zm0,16.669h-5.37v9.9h5.37Z" transform="translate(152.787 275.477)" fill="#fff"/>
  </g>
</svg>
